<?xml version="1.0" encoding="UTF-8"?>
<svg id="_レイヤー_2" data-name="レイヤー 2" xmlns="http://www.w3.org/2000/svg" viewBox="0 0 314.17 55.38">
  <defs>
    <style>
      .cls-1 {
        fill: #1b2a44;
        stroke-width: 0px;
      }
    </style>
  </defs>
  <g id="TOP">
    <g>
      <path class="cls-1" d="m51.12,0c-6.39,18.32-13.06,36.85-18.89,55.38h-9.73c-.71-13.56-1.28-27.41-1.42-40.97-4.61,13.56-9.02,27.41-13.28,40.97H0C6.11,36.92,12.28,18.46,18.81,0h9.16c.14,14.41.57,29.54,1.21,44.09,4.4-14.55,9.51-29.68,14.13-44.09h7.81Z"/>
      <path class="cls-1" d="m78.45,33.44c-4.12,8.17-8.52,16.26-20.94,16.26-7.03,0-12.5-3.98-12.5-11.36,0-9.3,6.25-18.18,15.48-18.18,5.61,0,8.59,4.12,8.59,8.38,0,8.45-9.51,12.21-16.68,10.58.5,2.84,2.56,4.54,6.67,4.54,6.89,0,11.08-3.62,16.12-13.7l3.27,3.48Zm-25.91,1.21c4.54.5,9.8-1.92,9.87-5.82.07-1.63-.85-2.77-2.41-2.77-3.55,0-6.53,3.83-7.45,8.59Z"/>
      <path class="cls-1" d="m71.57,41.04c0-5.32,3.05-14.13,6.18-20.16h7.67c-3.05,6.32-6.46,14.27-6.46,18.96,0,1.7.57,2.77,1.99,2.77,5.04,0,8.66-13.21,11.43-21.73h7.24c-2.13,6.46-5.4,15.34-5.4,19.17,0,1.42.5,2.63,2.2,2.63,3.9,0,10.15-10.29,9.8-21.8h7.6c.57,14.06-8.38,28.9-18.67,28.9-4.19,0-6.39-2.48-7.03-5.32-2.13,3.19-5.04,5.32-8.95,5.32-5.25,0-7.6-3.83-7.6-8.73Z"/>
      <path class="cls-1" d="m161.45,0c-1.49,18.96-3.05,37.06-4.47,55.38h-8.45c.5-4.47,1.06-9.02,1.56-13.63h-13.99c-2.41,4.61-4.76,9.16-7.03,13.63h-9.02c2.48-4.54,4.97-9.09,7.53-13.63h-7.24l2.49-7.1h8.8c6.53-11.57,13.14-23.07,19.45-34.65h10.37Zm-10.58,34.65c1.06-9.02,2.06-18.03,2.98-26.62-4.54,8.66-9.3,17.68-14.06,26.62h11.08Z"/>
      <path class="cls-1" d="m199.22,33.44c-2.56,5.96-9.3,16.26-16.05,16.26-4.33,0-6.67-3.12-6.67-6.75,0-4.4,2.27-8.95,4.97-14.84-1.56-.07-3.62-.28-5.4-.85-3.12,8.95-7.81,17.47-11.5,22.36l-4.83-3.62c5.4-7.03,10.65-18.89,12.21-27.62h6.6l-.64,2.84c3.27.85,10.08,1.21,13.06,1.14-2.77,5.89-7.03,15.41-7.03,18.67,0,1.14.57,1.85,1.56,1.85,2.7,0,7.45-6.03,10.65-12.85l3.05,3.41Z"/>
      <path class="cls-1" d="m225.14,33.44c-2.63,5.96-9.37,16.26-16.12,16.26-4.33,0-6.6-3.12-6.6-6.75,0-4.4,2.2-8.95,4.97-14.84-1.42-.07-3.12-.28-4.76-.71-2.91,6.96-6.46,12.28-10.15,16.69-3.48,4.12-6.11-.14-3.05-3.69,5.04-5.89,7.88-14.41,9.8-22.01h6.46c-.28,1.06-.57,2.06-.92,3.12,3.48.64,9.37.92,12.07.85-2.7,5.89-6.96,15.41-6.96,18.67,0,1.14.57,1.85,1.56,1.85,2.7,0,7.46-6.03,10.58-12.85l3.12,3.41Z"/>
      <path class="cls-1" d="m241.11,33.44c-2.63,6.04-9.3,16.26-16.19,16.26-11,0-5.75-13.84-.14-28.83h7.38c-4.47,12.07-8.8,22.01-4.97,22.01,2.77,0,7.24-5.4,10.86-12.85l3.05,3.41Zm-14.7-20.09c0-3.34,2.77-6.39,5.82-6.39,2.13,0,3.69,1.56,3.69,3.69,0,3.12-2.84,6.46-5.82,6.46-2.34,0-3.69-1.63-3.69-3.76Z"/>
      <path class="cls-1" d="m271,31.45c-1.7,3.19-7.38,6.74-13.13,5.32-3.41,7.53-9.23,12.99-15.69,12.99-5.4,0-7.53-3.83-7.53-8.45,0-5.68,2.77-14.2,5.11-20.45h7.53c-2.34,6.75-5.4,15.62-5.4,19.6,0,1.49.57,2.27,1.85,2.27,3.48,0,10.08-10.37,9.8-21.87h7.6c.14,3.48-.28,7.03-1.21,10.37,2.98.71,5.89-.43,7.74-3.41l3.34,3.62Z"/>
      <path class="cls-1" d="m301.03,33.44c-2.7,6.04-9.37,16.26-16.19,16.26-3.41,0-5.32-2.34-5.75-4.76-1.56,2.48-4.12,4.76-8.09,4.76-4.9,0-8.02-4.05-8.02-10.29,0-9.51,6.6-19.24,14.63-19.24,2.84,0,5.61,1.77,6.67,3.69l.99-2.98h7.24c-6.25,17.04-8.09,22.01-5.4,22.01s7.17-5.4,10.79-12.85l3.12,3.41Zm-18.46-4.47c-.92-1.35-2.48-2.34-4.26-2.34-4.69,0-7.81,6.6-7.81,12.07,0,2.27.99,4.19,3.27,4.19,3.12,0,5.96-4.54,8.8-13.92Z"/>
      <path class="cls-1" d="m314.17,39.97c-2.2,3.91-7.81,9.73-13.7,9.73-6.96,0-7.88-5.54-3.98-17.89,2.27-6.96,6.25-17.61,9.8-27.41h7.53c-4.54,11.79-8.31,22.51-10.29,28.54-2.63,7.74-2.91,9.94-.78,9.94,1.77,0,5.04-3.34,7.45-6.89l3.98,3.98Z"/>
    </g>
  </g>
</svg>