<?xml version="1.0" encoding="UTF-8"?>
<svg id="_レイヤー_2" data-name="レイヤー 2" xmlns="http://www.w3.org/2000/svg" viewBox="0 0 172.6 56.8">
  <defs>
    <style>
      .cls-1 {
        fill: #1b2a44;
        stroke-width: 0px;
      }
    </style>
  </defs>
  <g id="TOP">
    <g>
      <path class="cls-1" d="m32.52,31.95c5.04,1.7,8.73,5.75,8.73,10.37,0,9.23-10.15,14.48-20.87,14.48-8.09,0-17.04-3.05-20.38-5.4l3.55-6.75c1.35.85,2.91,1.63,4.47,2.34,3.48-10.51,7.31-21.02,10.65-31.52h8.09l-4.26,12.42c9.8.14,19.17-3.9,19.17-11.5,0-5.96-6.32-9.09-12.71-9.09-5.68,0-11.57,1.78-16.12,4.54l-3.05-6.6C14.84,1.92,22.22,0,28.97,0c11.5,0,20.87,6.18,20.87,15.48,0,7.95-7.46,14.77-17.32,16.47Zm.43,10.44c0-4.47-6.32-7.81-12.64-8.17-1.77,5.11-3.48,10.15-4.97,15.27,1.92.43,3.83.71,5.75.71,6.46,0,11.93-2.91,11.86-7.81Z"/>
      <path class="cls-1" d="m82.5,34.15c-2.56,5.96-9.3,16.26-16.05,16.26-4.33,0-6.67-3.12-6.67-6.75,0-4.4,2.27-8.95,4.97-14.84-1.56-.07-3.62-.28-5.4-.85-3.12,8.95-7.81,17.47-11.5,22.36l-4.83-3.62c5.4-7.03,10.65-18.89,12.21-27.62h6.6l-.64,2.84c3.27.85,10.08,1.21,13.06,1.14-2.77,5.89-7.03,15.41-7.03,18.67,0,1.14.57,1.85,1.56,1.85,2.7,0,7.46-6.03,10.65-12.85l3.05,3.41Z"/>
      <path class="cls-1" d="m113.81,34.15c-2.7,6.04-9.37,16.26-16.19,16.26-3.41,0-5.33-2.34-5.75-4.76-1.56,2.48-4.12,4.76-8.09,4.76-4.9,0-8.02-4.05-8.02-10.29,0-9.51,6.6-19.24,14.63-19.24,2.84,0,5.61,1.77,6.67,3.69l.99-2.98h7.24c-6.25,17.04-8.09,22.01-5.4,22.01s7.17-5.4,10.79-12.85l3.12,3.41Zm-18.46-4.47c-.92-1.35-2.49-2.34-4.26-2.34-4.69,0-7.81,6.6-7.81,12.07,0,2.27.99,4.19,3.27,4.19,3.12,0,5.96-4.54,8.8-13.92Z"/>
      <path class="cls-1" d="m121.05,44.16c0-5.47,5.25-11.5,5.25-14.84,0-1.14-.43-1.92-1.7-1.92-5.68,0-11.29,14.48-13.42,22.29h-7.38c3.2-9.37,6.32-18.74,9.58-28.12h7.17l-1.99,5.82c2.56-4.33,6.39-6.53,9.87-6.53s5.75,2.34,5.75,5.82c.14,5.25-5.61,12.35-5.61,15.41,0,.92.57,1.49,1.49,1.49,2.77,0,7.17-5.61,10.72-12.85l3.12,3.41c-2.7,6.04-9.3,16.26-16.4,16.26-4.26,0-6.46-2.63-6.46-6.25Z"/>
      <path class="cls-1" d="m172.6,40.68c-2.2,3.91-7.74,9.66-13.63,9.73h-.07c-3.34,0-5.25-2.34-5.61-4.76-1.63,2.48-4.12,4.76-8.17,4.76-4.9,0-7.95-4.12-7.95-10.44,0-9.44,6.53-19.1,14.56-19.1,2.84,0,5.61,1.77,6.67,3.69,2.27-6.46,4.4-12.92,6.53-19.45h7.38c-11.36,31.1-14.2,38.48-11.15,38.48,1.78,0,5.04-3.34,7.46-6.89l3.98,3.98Zm-15.98-11c-.92-1.35-2.49-2.34-4.26-2.34-4.69,0-7.88,6.53-7.88,12,0,2.27,1.07,4.26,3.27,4.26,3.2,0,6.04-4.54,8.88-13.92Z"/>
    </g>
  </g>
</svg>