<?xml version="1.0" encoding="utf-8"?>
<!-- Generator: Adobe Illustrator 27.9.0, SVG Export Plug-In . SVG Version: 6.00 Build 0)  -->
<svg version="1.1" id="_レイヤー_2" xmlns="http://www.w3.org/2000/svg" xmlns:xlink="http://www.w3.org/1999/xlink" x="0px"
	 y="0px" viewBox="0 0 262.5 96" style="enable-background:new 0 0 262.5 96;" xml:space="preserve">
<style type="text/css">
	.st0{fill:#1B2A44;}
</style>
<g id="TOP">
	<g>
		<path class="st0" d="M0,69.4C6.2,51.3,12.5,32,18.9,14.1h8C20.5,32,13.9,51.3,8,69.4H0z"/>
		<path class="st0" d="M34.9,57.5c0-5.5,5.2-11.5,5.2-14.8c0-1.1-0.4-1.9-1.7-1.9c-5.7,0-11.3,14.5-13.4,22.3h-7.4
			c3.2-9.4,6.3-18.7,9.6-28.1h7.2l-2,5.8c2.6-4.3,6.4-6.5,9.9-6.5s5.8,2.3,5.8,5.8c0.1,5.2-5.6,12.3-5.6,15.4c0,0.9,0.6,1.5,1.5,1.5
			c2.8,0,7.2-5.6,10.7-12.9l3.1,3.4c-2.7,6-9.3,16.3-16.4,16.3C37.1,63.8,34.9,61.1,34.9,57.5L34.9,57.5z"/>
		<path class="st0" d="M83.1,47.4c-4.9,10.7-10.1,16.4-21.6,16.4c-5.2,0-10.7-2.3-12.7-6.7c-0.8-1.6-0.4-2.9,1-4.9
			c4-6,6.5-11.1,8.7-18.6h8c2.1,4.2,5.8,10.9,5.7,16.2c0,3-0.9,5.9-2.9,7.7c3.6-1.7,7.4-6.3,10.9-13.8L83.1,47.4L83.1,47.4z
			 M65.1,51.3c0-3.8-1.4-7.4-3-10.5c-1.8,5.8-4.8,10.9-7.3,14.2c1.1,1.5,2.8,2.8,5.1,2.8C63.3,57.9,65.1,54.7,65.1,51.3z"/>
		<path class="st0" d="M100.5,47.5c-2.7,6-9.4,16.3-16.2,16.3c-9.9,0-8.2-10.4-3.8-23.2h-3.1l1.9-5.6h3.1l3.7-9.9h7.4
			c-1.5,3.7-2.8,7-3.9,9.9h6l-2,5.6h-6c-4.5,12.5-4.5,16.4-1,16.4c2.8,0,7.2-5.4,10.8-12.9L100.5,47.5L100.5,47.5z"/>
		<path class="st0" d="M131.7,47.5c-2.7,6-9.4,16.3-16.2,16.3c-3.4,0-5.3-2.3-5.8-4.8c-1.6,2.5-4.1,4.8-8.1,4.8c-4.9,0-8-4-8-10.3
			c0-9.5,6.6-19.2,14.6-19.2c2.8,0,5.6,1.8,6.7,3.7l1-3h7.2c-6.2,17-8.1,22-5.4,22s7.2-5.4,10.8-12.9L131.7,47.5L131.7,47.5z
			 M113.2,43c-0.9-1.3-2.5-2.3-4.3-2.3c-4.7,0-7.8,6.6-7.8,12.1c0,2.3,1,4.2,3.3,4.2C107.6,56.9,110.4,52.4,113.2,43z"/>
		<path class="st0" d="M162.7,47.5c-3.8,8.5-9.6,15.4-18.7,18.7l-0.1,0.5c-3.6,10.5-10.4,15.2-17,15.2c-5.2,0-9-2.7-9-7.2
			c0-8,10.4-12,20.8-12.6l2-5.7c-1.7,2.1-4.5,3.2-7,3.2c-4.8,0-8.4-3.5-8.4-9c0-8.6,6-16.5,13.6-16.5c3.5,0,6.1,1.4,7.5,3.3l0.9-2.6
			h7.2l-8.2,24.4c5.4-2.8,9.4-7.2,13.3-15.3L162.7,47.5L162.7,47.5z M136.9,67.4c-5.4,0.4-12.1,2.9-12.1,6.5c0,1.5,1,2.2,2.8,2.2
			C131,76,134.6,73,136.9,67.4z M144.5,42.5c-0.9-1-2.9-2.1-4.8-2.1c-5,0-7.2,5-7.2,9.2c0,2.7,1.4,4.3,3.8,4.3
			C140.4,53.8,142.6,47.7,144.5,42.5L144.5,42.5z"/>
		<path class="st0" d="M188.6,47.5c-2.6,6-9.4,16.3-16.1,16.3c-4.3,0-6.6-3.1-6.6-6.8c0-4.4,2.2-9,5-14.8c-1.4-0.1-3.1-0.3-4.8-0.7
			c-2.9,7-6.5,12.3-10.1,16.7c-3.5,4.1-6.1-0.1-3.1-3.7c5-5.9,7.9-14.4,9.8-22h6.5c-0.3,1.1-0.6,2.1-0.9,3.1
			c3.5,0.6,9.4,0.9,12.1,0.9c-2.7,5.9-7,15.4-7,18.7c0,1.1,0.6,1.8,1.6,1.8c2.7,0,7.5-6,10.6-12.8L188.6,47.5L188.6,47.5z"/>
		<path class="st0" d="M219.8,47.5c-2.7,6-9.4,16.3-16.2,16.3c-3.4,0-5.3-2.3-5.8-4.8c-1.6,2.5-4.1,4.8-8.1,4.8c-4.9,0-8-4-8-10.3
			c0-9.5,6.6-19.2,14.6-19.2c2.8,0,5.6,1.8,6.7,3.7l1-3h7.2c-6.2,17-8.1,22-5.4,22s7.2-5.4,10.8-12.9L219.8,47.5L219.8,47.5z
			 M201.4,43c-0.9-1.3-2.5-2.3-4.3-2.3c-4.7,0-7.8,6.6-7.8,12.1c0,2.3,1,4.2,3.3,4.2C195.7,56.9,198.5,52.4,201.4,43L201.4,43z"/>
		<path class="st0" d="M262.5,54c-2.2,3.9-7.8,9.7-13.7,9.7c-4.3,0-6.5-2.6-6.5-6.2c0-5.5,5.3-11.6,5.3-14.8c0-1.1-0.5-1.9-1.7-1.9
			c-5.8,0-10.9,14.4-13.3,22.3h-7.2c5-14.1,6.5-17.8,6.5-20.3c0-1.1-0.6-2-1.7-2c-5.8,0-10.6,13.7-13.2,22.3h-7.2
			c3.2-9.4,6.3-18.7,9.5-28.1h7.1l-2.1,5.9c3.3-4.3,6.8-6.6,10.2-6.6s5.5,2.7,5,6.5c2.6-4.3,6.7-6.5,10.1-6.5s5.8,2.4,5.8,5.8
			c0.1,5.1-5.5,12.4-5.5,15.5c0,0.9,0.4,1.5,1.3,1.5c1.7,0,5-3.3,7.4-6.9L262.5,54L262.5,54z"/>
	</g>
</g>
</svg>
