<?xml version="1.0" encoding="UTF-8"?>
<svg id="_レイヤー_2" data-name="レイヤー 2" xmlns="http://www.w3.org/2000/svg" viewBox="0 0 245.31 76.1">
  <defs>
    <style>
      .cls-1 {
        fill: #1b2a44;
        stroke-width: 0px;
      }
    </style>
  </defs>
  <g id="TOP">
    <g>
      <path class="cls-1" d="m36.43,52.55c2.86,7.63,6.58,16.31,10.11,23.56h-11.63c-2.86-6.39-5.63-14.21-7.82-20.89-3.15.48-6.39.76-9.63.67-2.29,6.87-4.48,13.64-6.58,20.22H0c5.91-17.45,12.49-36.72,18.88-54.17h10.2c-2.86,7.92-5.72,16.21-8.58,24.6,16.31-.67,27.18-10.11,27.18-22.22,0-8.3-6.96-14.69-16.31-14.69-8.49,0-15.45,2.86-20.79,6.68L5.72,7.72C12.11,3.72,20.41,0,31.38,0c16.12,0,26.89,10.4,26.89,23.75s-9.44,23.75-21.84,28.8Z"/>
      <path class="cls-1" d="m101.85,46.63c-5.53,10.97-11.44,21.84-28.13,21.84-9.44,0-16.78-5.34-16.78-15.26,0-12.49,8.39-24.41,20.79-24.41,7.53,0,11.54,5.53,11.54,11.25,0,11.35-12.78,16.4-22.41,14.21.67,3.81,3.43,6.1,8.96,6.1,9.25,0,14.88-4.86,21.65-18.41l4.39,4.67Zm-34.81,1.62c6.1.67,13.16-2.57,13.26-7.82.09-2.19-1.14-3.72-3.24-3.72-4.77,0-8.77,5.15-10.01,11.54Z"/>
      <path class="cls-1" d="m142,43.96c-2.29,4.29-9.92,9.06-17.64,7.15-4.58,10.11-12.4,17.45-21.08,17.45-7.25,0-10.11-5.15-10.11-11.35,0-7.63,3.72-19.07,6.87-27.47h10.11c-3.15,9.06-7.25,20.98-7.25,26.32,0,2,.76,3.05,2.48,3.05,4.67,0,13.54-13.92,13.16-29.37h10.2c.19,4.67-.38,9.44-1.62,13.92,4.01.95,7.92-.57,10.4-4.58l4.48,4.86Z"/>
      <path class="cls-1" d="m161.83,46.63c-3.53,8.11-12.49,21.84-21.74,21.84-14.78,0-7.72-18.6-.19-38.72h9.92c-6.01,16.21-11.83,29.56-6.67,29.56,3.72,0,9.73-7.25,14.59-17.26l4.1,4.58Zm-19.74-26.99c0-4.48,3.72-8.58,7.82-8.58,2.86,0,4.96,2.1,4.96,4.96,0,4.2-3.81,8.68-7.82,8.68-3.15,0-4.96-2.19-4.96-5.05Z"/>
      <path class="cls-1" d="m197.78,46.63c-5.53,10.97-11.44,21.84-28.13,21.84-9.44,0-16.79-5.34-16.79-15.26,0-12.49,8.39-24.41,20.79-24.41,7.53,0,11.54,5.53,11.54,11.25,0,11.35-12.78,16.4-22.41,14.21.67,3.81,3.43,6.1,8.96,6.1,9.25,0,14.88-4.86,21.65-18.41l4.39,4.67Zm-34.81,1.62c6.1.67,13.16-2.57,13.26-7.82.1-2.19-1.14-3.72-3.24-3.72-4.77,0-8.77,5.15-10.01,11.54Z"/>
      <path class="cls-1" d="m188.53,56.84c0-7.15,4.1-18.98,8.3-27.08h10.3c-4.1,8.49-8.68,19.17-8.68,25.46,0,2.29.76,3.72,2.67,3.72,6.77,0,11.64-17.74,15.35-29.18h9.73c-2.86,8.68-7.25,20.6-7.25,25.75,0,1.91.67,3.53,2.96,3.53,5.25,0,13.64-13.83,13.16-29.28h10.21c.76,18.88-11.25,38.81-25.08,38.81-5.63,0-8.58-3.34-9.44-7.15-2.86,4.29-6.77,7.15-12.02,7.15-7.06,0-10.2-5.15-10.2-11.73Z"/>
    </g>
  </g>
</svg>