<?xml version="1.0" encoding="utf-8"?>
<!-- Generator: Adobe Illustrator 27.9.0, SVG Export Plug-In . SVG Version: 6.00 Build 0)  -->
<svg version="1.1" id="_レイヤー_2" xmlns="http://www.w3.org/2000/svg" xmlns:xlink="http://www.w3.org/1999/xlink" x="0px"
	 y="0px" viewBox="0 0 194.9 96" style="enable-background:new 0 0 194.9 96;" xml:space="preserve">
<style type="text/css">
	.st0{fill:#FFFFFF;}
</style>
<g id="TOP">
	<g>
		<path class="st0" d="M42.7,32.3c0,16.9-15.8,27.1-30.7,25.8c-1.4,4.1-2.7,8.2-3.9,12.2H0c4.3-13,9.5-27.3,13.9-40.3h7.6
			c-2.3,6.8-4.7,13.8-7,20.9c10.1,0.7,20.7-6.7,20.7-18.1C35.2,26.1,29,21,21.7,21c-5.4,0-10.6,2-14.3,4.7l-3.6-6.2
			c4.3-3.2,10.8-5.6,18.2-5.6C34.2,14,42.7,22.6,42.7,32.3z"/>
		<path class="st0" d="M63.3,48.5c-2.6,6-9.3,16.3-16.2,16.3c-11,0-5.8-13.8-0.1-28.8h7.4c-4.5,12.1-8.8,22-5,22
			c2.8,0,7.2-5.4,10.9-12.9L63.3,48.5L63.3,48.5z M48.6,28.4c0-3.3,2.8-6.4,5.8-6.4c2.1,0,3.7,1.6,3.7,3.7c0,3.1-2.8,6.5-5.8,6.5
			C50,32.1,48.6,30.5,48.6,28.4z"/>
		<path class="st0" d="M89.2,48.5c-4.1,8.2-8.5,16.3-20.9,16.3c-6.5,0-11.6-4.1-11.6-11.4c0-9.6,6.9-18.1,15.1-18.1
			c7.4,0,10.2,7,7.9,13.6h-7.5c1.4-4.1,0.8-7.3-1.5-7.3c-3.3,0-6.6,5.7-6.6,10.9c0,4,2.1,6.2,5.6,6.2c6.9,0,11.2-3.6,16.2-13.7
			L89.2,48.5L89.2,48.5z"/>
		<path class="st0" d="M115.2,57.7c-3.3,3.7-9,7-15.6,7c-6.1,0-9.6-5.2-7.7-12.1c6-0.3,11.5-5.4,11.5-8.9c0-1.3-0.9-2.3-2.4-2.3
			c-6.3,0-11.5,12.1-14.6,22.5L79.3,64c5-14.8,10.1-29.7,15.2-44.6h7.7c-2.6,6.6-5.8,15.3-8.3,21.9c2.5-3.6,6.2-6.1,9.8-6.1
			c4.3,0,7,3,7,7c0,7-6.8,12.6-13.8,13.4c0.4,1.9,1.8,3.1,4.3,3.1c4.1,0,8.4-3.5,11-6L115.2,57.7z"/>
		<path class="st0" d="M141.6,15.1h8.3c-8.9,21-19.1,48.3-8.2,48.3c10.1,0,17.3-25.6,23.4-48.3h8.4c-9.2,32.7-16.1,56-32.9,56
			C120.5,71.1,129.7,43.5,141.6,15.1z"/>
		<path class="st0" d="M158,82.1c5.3-15.3,10.6-31,15.8-46.2h7.2l-2.4,6c2.3-3.8,5.9-6.7,9.8-6.7s6.4,3.1,6.4,8.7
			c0,8.2-5.3,20.9-15.3,20.9c-3,0-5-0.7-7.6-2.5c-1.9,5.2-3.9,12.1-6.2,19.9L158,82.1L158,82.1z M187.3,45.3c0-2.3-0.9-3.8-2.6-3.8
			c-2.8-0.1-7,4.3-11.1,15.6c1,1.1,2.7,1.8,4.8,1.8C183.9,58.9,187.3,50.8,187.3,45.3L187.3,45.3z"/>
	</g>
</g>
</svg>
