<?xml version="1.0" encoding="utf-8"?>
<!-- Generator: Adobe Illustrator 27.9.0, SVG Export Plug-In . SVG Version: 6.00 Build 0)  -->
<svg version="1.1" id="_レイヤー_2" xmlns="http://www.w3.org/2000/svg" xmlns:xlink="http://www.w3.org/1999/xlink" x="0px"
	 y="0px" viewBox="0 0 314.2 96" style="enable-background:new 0 0 314.2 96;" xml:space="preserve">
<style type="text/css">
	.st0{fill:#1B2A44;}
</style>
<g id="TOP">
	<g>
		<path class="st0" d="M51.1,20.3c-6.4,18.3-13.1,36.8-18.9,55.4h-9.7c-0.7-13.6-1.3-27.4-1.4-41c-4.6,13.6-9,27.4-13.3,41H0
			c6.1-18.5,12.3-36.9,18.8-55.4H28c0.1,14.4,0.6,29.5,1.2,44.1c4.4-14.6,9.5-29.7,14.1-44.1C43.3,20.3,51.1,20.3,51.1,20.3z"/>
		<path class="st0" d="M78.4,53.8C74.3,61.9,69.9,70,57.5,70c-7,0-12.5-4-12.5-11.4c0-9.3,6.2-18.2,15.5-18.2c5.6,0,8.6,4.1,8.6,8.4
			c0,8.4-9.5,12.2-16.7,10.6c0.5,2.8,2.6,4.5,6.7,4.5c6.9,0,11.1-3.6,16.1-13.7L78.4,53.8L78.4,53.8z M52.5,55
			c4.5,0.5,9.8-1.9,9.9-5.8c0.1-1.6-0.8-2.8-2.4-2.8C56.4,46.4,53.5,50.2,52.5,55L52.5,55z"/>
		<path class="st0" d="M71.6,61.3c0-5.3,3.1-14.1,6.2-20.2h7.7c-3.1,6.3-6.5,14.3-6.5,19c0,1.7,0.6,2.8,2,2.8
			c5,0,8.7-13.2,11.4-21.7h7.2c-2.1,6.5-5.4,15.3-5.4,19.2c0,1.4,0.5,2.6,2.2,2.6c3.9,0,10.2-10.3,9.8-21.8h7.6
			c0.6,14.1-8.4,28.9-18.7,28.9c-4.2,0-6.4-2.5-7-5.3c-2.1,3.2-5,5.3-8.9,5.3C73.9,70.1,71.6,66.3,71.6,61.3L71.6,61.3z"/>
		<path class="st0" d="M161.4,20.3c-1.5,19-3.1,37.1-4.5,55.4h-8.4c0.5-4.5,1.1-9,1.6-13.6h-14c-2.4,4.6-4.8,9.2-7,13.6h-9
			c2.5-4.5,5-9.1,7.5-13.6h-7.2l2.5-7.1h8.8c6.5-11.6,13.1-23.1,19.4-34.7H161.4L161.4,20.3z M150.9,55c1.1-9,2.1-18,3-26.6
			C149.3,37,144.5,46,139.8,55H150.9z"/>
		<path class="st0" d="M199.2,53.8c-2.6,6-9.3,16.3-16.1,16.3c-4.3,0-6.7-3.1-6.7-6.8c0-4.4,2.3-8.9,5-14.8
			c-1.6-0.1-3.6-0.3-5.4-0.9c-3.1,9-7.8,17.5-11.5,22.4l-4.8-3.6c5.4-7,10.6-18.9,12.2-27.6h6.6l-0.6,2.8c3.3,0.9,10.1,1.2,13.1,1.1
			c-2.8,5.9-7,15.4-7,18.7c0,1.1,0.6,1.8,1.6,1.8c2.7,0,7.4-6,10.6-12.9L199.2,53.8L199.2,53.8z"/>
		<path class="st0" d="M225.1,53.8c-2.6,6-9.4,16.3-16.1,16.3c-4.3,0-6.6-3.1-6.6-6.8c0-4.4,2.2-8.9,5-14.8
			c-1.4-0.1-3.1-0.3-4.8-0.7c-2.9,7-6.5,12.3-10.1,16.7c-3.5,4.1-6.1-0.1-3.1-3.7c5-5.9,7.9-14.4,9.8-22h6.5
			c-0.3,1.1-0.6,2.1-0.9,3.1c3.5,0.6,9.4,0.9,12.1,0.8c-2.7,5.9-7,15.4-7,18.7c0,1.1,0.6,1.8,1.6,1.8c2.7,0,7.5-6,10.6-12.8
			L225.1,53.8L225.1,53.8z"/>
		<path class="st0" d="M241.1,53.8c-2.6,6-9.3,16.3-16.2,16.3c-11,0-5.8-13.8-0.1-28.8h7.4c-4.5,12.1-8.8,22-5,22
			c2.8,0,7.2-5.4,10.9-12.8L241.1,53.8L241.1,53.8z M226.4,33.7c0-3.3,2.8-6.4,5.8-6.4c2.1,0,3.7,1.6,3.7,3.7c0,3.1-2.8,6.5-5.8,6.5
			C227.8,37.4,226.4,35.8,226.4,33.7z"/>
		<path class="st0" d="M271,51.8c-1.7,3.2-7.4,6.7-13.1,5.3c-3.4,7.5-9.2,13-15.7,13c-5.4,0-7.5-3.8-7.5-8.4
			c0-5.7,2.8-14.2,5.1-20.5h7.5c-2.3,6.8-5.4,15.6-5.4,19.6c0,1.5,0.6,2.3,1.9,2.3c3.5,0,10.1-10.4,9.8-21.9h7.6
			c0.1,3.5-0.3,7-1.2,10.4c3,0.7,5.9-0.4,7.7-3.4L271,51.8L271,51.8z"/>
		<path class="st0" d="M301,53.8c-2.7,6-9.4,16.3-16.2,16.3c-3.4,0-5.3-2.3-5.8-4.8c-1.6,2.5-4.1,4.8-8.1,4.8c-4.9,0-8-4-8-10.3
			c0-9.5,6.6-19.2,14.6-19.2c2.8,0,5.6,1.8,6.7,3.7l1-3h7.2c-6.2,17-8.1,22-5.4,22s7.2-5.4,10.8-12.8L301,53.8L301,53.8z
			 M282.6,49.3c-0.9-1.3-2.5-2.3-4.3-2.3c-4.7,0-7.8,6.6-7.8,12.1c0,2.3,1,4.2,3.3,4.2C276.9,63.2,279.7,58.7,282.6,49.3L282.6,49.3
			z"/>
		<path class="st0" d="M314.2,60.3c-2.2,3.9-7.8,9.7-13.7,9.7c-7,0-7.9-5.5-4-17.9c2.3-7,6.2-17.6,9.8-27.4h7.5
			c-4.5,11.8-8.3,22.5-10.3,28.5c-2.6,7.7-2.9,9.9-0.8,9.9c1.8,0,5-3.3,7.5-6.9L314.2,60.3L314.2,60.3z"/>
	</g>
</g>
</svg>
