<?xml version="1.0" encoding="UTF-8"?>
<svg id="_レイヤー_2" data-name="レイヤー 2" xmlns="http://www.w3.org/2000/svg" viewBox="0 0 210.01 69.15">
  <defs>
    <style>
      .cls-1 {
        fill: #1b2a44;
        stroke-width: 0px;
      }
    </style>
  </defs>
  <g id="TOP">
    <g>
      <path class="cls-1" d="m27.12,39.12c2.13,5.68,4.9,12.14,7.53,17.54h-8.66c-2.13-4.76-4.19-10.58-5.82-15.55-2.34.36-4.76.57-7.17.5-1.7,5.11-3.34,10.15-4.9,15.05H0c4.4-12.99,9.3-27.33,14.06-40.33h7.6c-2.13,5.89-4.26,12.07-6.39,18.32,12.14-.5,20.23-7.53,20.23-16.54,0-6.18-5.18-10.93-12.14-10.93-6.32,0-11.5,2.13-15.48,4.97l-3.62-6.39C9.02,2.77,15.19,0,23.36,0c12,0,20.02,7.74,20.02,17.68s-7.03,17.68-16.26,21.44Z"/>
      <path class="cls-1" d="m80.3,34.72c-2.7,6.04-9.37,16.26-16.19,16.26-3.41,0-5.32-2.34-5.75-4.76-1.56,2.48-4.12,4.76-8.09,4.76-4.9,0-8.02-4.05-8.02-10.29,0-9.51,6.6-19.24,14.63-19.24,2.84,0,5.61,1.78,6.67,3.69l.99-2.98h7.24c-6.25,17.04-8.09,22.01-5.4,22.01s7.17-5.4,10.79-12.85l3.12,3.41Zm-18.46-4.47c-.92-1.35-2.49-2.34-4.26-2.34-4.69,0-7.81,6.6-7.81,12.07,0,2.27.99,4.19,3.27,4.19,3.12,0,5.96-4.54,8.8-13.92Z"/>
      <path class="cls-1" d="m87.54,44.73c0-5.47,5.25-11.5,5.25-14.84,0-1.14-.43-1.92-1.7-1.92-5.68,0-11.29,14.48-13.42,22.29h-7.38c3.19-9.37,6.32-18.74,9.58-28.12h7.17l-1.99,5.82c2.56-4.33,6.39-6.53,9.87-6.53s5.75,2.34,5.75,5.82c.14,5.25-5.61,12.35-5.61,15.41,0,.92.57,1.49,1.49,1.49,2.77,0,7.17-5.61,10.72-12.85l3.12,3.41c-2.7,6.04-9.3,16.26-16.4,16.26-4.26,0-6.46-2.63-6.46-6.25Z"/>
      <path class="cls-1" d="m141.15,34.72c-4.12,8.17-8.52,16.26-20.94,16.26-5.75,0-9.02-5.18-7.17-12.07,6.39-.35,11.5-5.4,11.5-8.88,0-1.28-.92-2.34-2.41-2.34-6.32,0-11.5,12.14-14.55,22.51l-7.17.07c4.97-14.84,10.08-29.68,15.19-44.59h7.74c-2.56,6.6-5.82,15.26-8.31,21.87,2.48-3.55,6.25-6.11,9.8-6.11,4.26,0,7.03,2.98,7.03,6.96,0,6.96-6.67,12.71-13.84,13.42.43,1.92,1.28,3.12,3.76,3.12,6.89,0,11.15-3.62,16.19-13.7l3.2,3.48Z"/>
      <path class="cls-1" d="m157.19,34.72c-2.63,6.04-9.3,16.26-16.19,16.26-11,0-5.75-13.84-.14-28.83h7.38c-4.47,12.07-8.8,22.01-4.97,22.01,2.77,0,7.24-5.4,10.86-12.85l3.05,3.41Zm-14.7-20.09c0-3.34,2.77-6.39,5.82-6.39,2.13,0,3.69,1.56,3.69,3.69,0,3.12-2.84,6.46-5.82,6.46-2.34,0-3.69-1.63-3.69-3.76Z"/>
      <path class="cls-1" d="m164.43,44.73c0-5.47,5.25-11.5,5.25-14.84,0-1.14-.43-1.92-1.7-1.92-5.68,0-11.29,14.48-13.42,22.29h-7.38c3.19-9.37,6.32-18.74,9.58-28.12h7.17l-1.99,5.82c2.56-4.33,6.39-6.53,9.87-6.53s5.75,2.34,5.75,5.82c.14,5.25-5.61,12.35-5.61,15.41,0,.92.57,1.49,1.49,1.49,2.77,0,7.17-5.61,10.72-12.85l3.12,3.41c-2.7,6.04-9.3,16.26-16.4,16.26-4.26,0-6.46-2.63-6.46-6.25Z"/>
      <path class="cls-1" d="m173.38,61.98c0-8.02,10.37-12,20.8-12.57l1.99-5.68c-1.7,2.13-4.54,3.2-7.03,3.2-4.76,0-8.38-3.55-8.38-8.95,0-8.59,6.03-16.54,13.63-16.54,3.48,0,6.11,1.42,7.53,3.27l.85-2.56h7.24l-10.58,31.81c-3.55,10.51-10.37,15.19-17.04,15.19-5.25,0-9.02-2.7-9.02-7.17Zm19.1-7.38c-5.4.43-12.14,2.91-12.14,6.46,0,1.49.99,2.2,2.84,2.2,3.41,0,6.96-3.05,9.3-8.66Zm7.6-24.92c-.85-.99-2.91-2.13-4.83-2.13-4.97,0-7.24,5.04-7.24,9.23,0,2.7,1.42,4.26,3.76,4.26,4.26,0,6.46-6.11,8.31-11.36Z"/>
    </g>
  </g>
</svg>