<?xml version="1.0" encoding="utf-8"?>
<!-- Generator: Adobe Illustrator 27.9.0, SVG Export Plug-In . SVG Version: 6.00 Build 0)  -->
<svg version="1.1" id="_レイヤー_2" xmlns="http://www.w3.org/2000/svg" xmlns:xlink="http://www.w3.org/1999/xlink" x="0px"
	 y="0px" viewBox="0 0 307.6 96" style="enable-background:new 0 0 307.6 96;" xml:space="preserve">
<style type="text/css">
	.st0{fill:#1B2A44;}
</style>
<g id="TOP">
	<g>
		<path class="st0" d="M27.1,58.8c2.1,5.7,4.9,12.1,7.5,17.5H26c-2.1-4.8-4.2-10.6-5.8-15.6c-2.3,0.4-4.8,0.6-7.2,0.5
			c-1.7,5.1-3.3,10.2-4.9,15.1H0C4.4,63.3,9.3,49,14.1,36h7.6c-2.1,5.9-4.3,12.1-6.4,18.3c12.1-0.5,20.2-7.5,20.2-16.5
			c0-6.2-5.2-10.9-12.1-10.9c-6.3,0-11.5,2.1-15.5,5l-3.6-6.4c4.8-3,10.9-5.8,19.1-5.8c12,0,20,7.7,20,17.7S36.4,55,27.1,58.8z"/>
		<path class="st0" d="M75.8,54.4c-4.1,8.2-8.5,16.3-20.9,16.3c-7,0-12.5-4-12.5-11.4c0-9.3,6.2-18.2,15.5-18.2
			c5.6,0,8.6,4.1,8.6,8.4c0,8.4-9.5,12.2-16.7,10.6c0.5,2.8,2.6,4.5,6.7,4.5c6.9,0,11.1-3.6,16.1-13.7L75.8,54.4L75.8,54.4z
			 M49.9,55.6c4.5,0.5,9.8-1.9,9.9-5.8c0.1-1.6-0.8-2.8-2.4-2.8C53.8,47,50.9,50.8,49.9,55.6L49.9,55.6z"/>
		<path class="st0" d="M101.7,54.4c-4.1,8.2-8.5,16.3-20.9,16.3c-6.5,0-11.6-4.1-11.6-11.4c0-9.6,6.9-18.1,15.1-18.1
			c7.4,0,10.2,7,7.9,13.6h-7.5c1.4-4.1,0.8-7.3-1.5-7.3c-3.3,0-6.6,5.7-6.6,10.9c0,4,2.1,6.2,5.6,6.2c6.9,0,11.2-3.6,16.2-13.7
			L101.7,54.4L101.7,54.4z"/>
		<path class="st0" d="M131.9,52.4c-1.6,3-6.8,6.4-12.2,5.5c-2.1,7-7.4,12.7-14.9,12.7c-6,0-9.7-4.4-9.7-10.4
			c0-9.9,6.6-19.2,16.1-19.2c6.2,0,9.5,5.2,9.5,10.4v0.6c3.1,0.8,6.1-0.3,8-3.3L131.9,52.4L131.9,52.4z M113.2,52.1
			c0-2.8-1.1-4.8-3.3-4.8c-3.8,0-7.5,6.8-7.5,11.9c0,3.2,1.3,4.8,3.4,4.8C109.4,64.1,113.2,57.5,113.2,52.1L113.2,52.1z"/>
		<path class="st0" d="M153.6,64.4c0-5.5,5.3-11.6,5.3-14.8c0-1.1-0.5-1.9-1.7-1.9c-5.8,0-10.9,14.4-13.3,22.3h-7.2
			c5-14.1,6.5-17.8,6.5-20.3c0-1.1-0.6-2-1.7-2c-5.8,0-10.6,13.7-13.2,22.3h-7.2c3.2-9.4,6.3-18.7,9.5-28.1h7.1l-2.1,5.9
			c3.3-4.3,6.8-6.6,10.2-6.6s5.5,2.7,5,6.5c2.6-4.3,6.7-6.5,10.1-6.5s5.8,2.4,5.8,5.8c0.1,5.1-5.5,12.4-5.5,15.5
			c0,0.9,0.6,1.5,1.5,1.5c2.8,0,7.2-5.6,10.8-12.9l3.1,3.4c-2.6,6-9.3,16.3-16.4,16.3C155.8,70.6,153.6,68,153.6,64.4L153.6,64.4z"
			/>
		<path class="st0" d="M199.1,64.4c0-5.5,5.3-11.6,5.3-14.8c0-1.1-0.5-1.9-1.7-1.9c-5.8,0-10.9,14.4-13.3,22.3h-7.2
			c5-14.1,6.5-17.8,6.5-20.3c0-1.1-0.6-2-1.7-2c-5.8,0-10.6,13.7-13.2,22.3h-7.2c3.2-9.4,6.3-18.7,9.5-28.1h7.1l-2.1,5.9
			c3.3-4.3,6.8-6.6,10.2-6.6s5.5,2.7,5,6.5c2.6-4.3,6.7-6.5,10.1-6.5s5.8,2.4,5.8,5.8c0.1,5.1-5.5,12.4-5.5,15.5
			c0,0.9,0.6,1.5,1.5,1.5c2.8,0,7.2-5.6,10.8-12.9l3.1,3.4c-2.6,6-9.3,16.3-16.4,16.3C201.3,70.6,199.1,68,199.1,64.4L199.1,64.4z"
			/>
		<path class="st0" d="M248.8,54.4c-4.1,8.2-8.5,16.3-20.9,16.3c-7,0-12.5-4-12.5-11.4c0-9.3,6.2-18.2,15.5-18.2
			c5.6,0,8.6,4.1,8.6,8.4c0,8.4-9.5,12.2-16.7,10.6c0.5,2.8,2.6,4.5,6.7,4.5c6.9,0,11.1-3.6,16.1-13.7L248.8,54.4L248.8,54.4z
			 M222.9,55.6c4.5,0.5,9.8-1.9,9.9-5.8c0.1-1.6-0.9-2.8-2.4-2.8C226.8,47,223.8,50.8,222.9,55.6L222.9,55.6z"/>
		<path class="st0" d="M256,64.4c0-5.5,5.2-11.5,5.2-14.8c0-1.1-0.4-1.9-1.7-1.9c-5.7,0-11.3,14.5-13.4,22.3h-7.4
			c3.2-9.4,6.3-18.7,9.6-28.1h7.2l-2,5.8c2.6-4.3,6.4-6.5,9.9-6.5s5.8,2.3,5.8,5.8c0.1,5.2-5.6,12.3-5.6,15.4c0,0.9,0.6,1.5,1.5,1.5
			c2.8,0,7.2-5.6,10.7-12.8l3.1,3.4c-2.7,6-9.3,16.3-16.4,16.3C258.2,70.6,256,68,256,64.4L256,64.4z"/>
		<path class="st0" d="M307.6,60.9c-2.2,3.9-7.7,9.7-13.6,9.7h-0.1c-3.3,0-5.2-2.3-5.6-4.8c-1.6,2.5-4.1,4.8-8.2,4.8
			c-4.9,0-8-4.1-8-10.4c0-9.4,6.5-19.1,14.5-19.1c2.8,0,5.6,1.8,6.7,3.7c2.3-6.5,4.4-12.9,6.5-19.4h7.4
			c-11.4,31.1-14.2,38.5-11.1,38.5c1.8,0,5-3.3,7.5-6.9L307.6,60.9L307.6,60.9z M291.6,49.9c-0.9-1.3-2.5-2.3-4.3-2.3
			c-4.7,0-7.9,6.5-7.9,12c0,2.3,1.1,4.3,3.3,4.3C285.9,63.8,288.8,59.3,291.6,49.9L291.6,49.9z"/>
	</g>
</g>
</svg>
