<?xml version="1.0" encoding="UTF-8"?>
<svg id="_レイヤー_2" data-name="レイヤー 2" xmlns="http://www.w3.org/2000/svg" viewBox="0 0 137.74 55.38">
  <defs>
    <style>
      .cls-1 {
        fill: #1b2a44;
        stroke-width: 0px;
      }
    </style>
  </defs>
  <g id="TOP">
    <g>
      <path class="cls-1" d="m51.12,0c-6.39,18.32-13.06,36.85-18.89,55.38h-9.73c-.71-13.56-1.28-27.41-1.42-40.97-4.61,13.56-9.02,27.41-13.28,40.97H0C6.11,36.92,12.28,18.46,18.81,0h9.16c.14,14.41.57,29.54,1.21,44.09,4.4-14.55,9.51-29.68,14.13-44.09h7.81Z"/>
      <path class="cls-1" d="m78.45,33.44c-4.12,8.17-8.52,16.26-20.94,16.26-7.03,0-12.5-3.98-12.5-11.36,0-9.3,6.25-18.18,15.48-18.18,5.61,0,8.59,4.12,8.59,8.38,0,8.45-9.51,12.21-16.68,10.58.5,2.84,2.56,4.54,6.67,4.54,6.89,0,11.08-3.62,16.12-13.7l3.27,3.48Zm-25.91,1.21c4.54.5,9.8-1.92,9.87-5.82.07-1.63-.85-2.77-2.41-2.77-3.55,0-6.53,3.83-7.45,8.59Z"/>
      <path class="cls-1" d="m131.56,19.52c1.92,4.4,6.25,11.43,6.18,18.89,0,4.9-3.69,11.36-11.93,11.36-4.4,0-9.73-2.41-11.93-7.17-2.34.71-4.69.85-7.03.43-3.27,4.12-7.38,6.74-11.71,6.74s-6.39-2.48-7.03-5.32c-2.13,3.19-5.04,5.32-8.95,5.32-5.25,0-7.6-3.83-7.6-8.73,0-5.32,3.05-14.13,6.18-20.16h7.67c-3.05,6.32-6.46,14.27-6.46,18.96,0,1.7.57,2.77,1.99,2.77,5.04,0,8.66-13.21,11.43-21.73h7.24c-2.13,6.46-5.4,15.34-5.4,19.17,0,1.42.5,2.63,2.2,2.63,3.9,0,10.15-10.29,9.8-21.8h7.6c.21,5.61-1.06,11.29-3.34,16.19,7.31-1.06,11.29-10.29,12.99-17.54h8.09Zm-1.35,17.82c0-3.76-1.42-7.31-2.98-10.44-1.63,5.75-4.54,10.08-8.02,12.85.85,1.92,2.84,4.05,5.82,4.05,3.27,0,5.11-3.19,5.18-6.46Z"/>
    </g>
  </g>
</svg>