<?xml version="1.0" encoding="utf-8"?>
<!-- Generator: Adobe Illustrator 27.9.0, SVG Export Plug-In . SVG Version: 6.00 Build 0)  -->
<svg version="1.1" id="_レイヤー_2" xmlns="http://www.w3.org/2000/svg" xmlns:xlink="http://www.w3.org/1999/xlink" x="0px"
	 y="0px" viewBox="0 0 245.3 96" style="enable-background:new 0 0 245.3 96;" xml:space="preserve">
<style type="text/css">
	.st0{fill:#1B2A44;}
</style>
<g id="TOP">
	<g>
		<path class="st0" d="M36.4,62.5c2.9,7.6,6.6,16.3,10.1,23.6H34.9c-2.9-6.4-5.6-14.2-7.8-20.9c-3.1,0.5-6.4,0.8-9.6,0.7
			c-2.3,6.9-4.5,13.6-6.6,20.2H0c5.9-17.4,12.5-36.7,18.9-54.2h10.2c-2.9,7.9-5.7,16.2-8.6,24.6c16.3-0.7,27.2-10.1,27.2-22.2
			c0-8.3-7-14.7-16.3-14.7c-8.5,0-15.4,2.9-20.8,6.7l-4.9-8.6c6.4-4,14.7-7.7,25.7-7.7c16.1,0,26.9,10.4,26.9,23.8
			S48.8,57.5,36.4,62.5z"/>
		<path class="st0" d="M101.8,56.6c-5.5,11-11.4,21.8-28.1,21.8c-9.4,0-16.8-5.3-16.8-15.3c0-12.5,8.4-24.4,20.8-24.4
			c7.5,0,11.5,5.5,11.5,11.2c0,11.4-12.8,16.4-22.4,14.2c0.7,3.8,3.4,6.1,9,6.1c9.2,0,14.9-4.9,21.7-18.4L101.8,56.6L101.8,56.6z
			 M67,58.2c6.1,0.7,13.2-2.6,13.3-7.8c0.1-2.2-1.1-3.7-3.2-3.7C72.3,46.7,68.3,51.8,67,58.2L67,58.2z"/>
		<path class="st0" d="M142,53.9c-2.3,4.3-9.9,9.1-17.6,7.2c-4.6,10.1-12.4,17.4-21.1,17.4c-7.2,0-10.1-5.1-10.1-11.3
			c0-7.6,3.7-19.1,6.9-27.5h10.1c-3.2,9.1-7.2,21-7.2,26.3c0,2,0.8,3.1,2.5,3.1c4.7,0,13.5-13.9,13.2-29.4h10.2
			c0.2,4.7-0.4,9.4-1.6,13.9c4,1,7.9-0.6,10.4-4.6L142,53.9L142,53.9z"/>
		<path class="st0" d="M161.8,56.6c-3.5,8.1-12.5,21.8-21.7,21.8c-14.8,0-7.7-18.6-0.2-38.7h9.9c-6,16.2-11.8,29.6-6.7,29.6
			c3.7,0,9.7-7.2,14.6-17.3L161.8,56.6L161.8,56.6z M142.1,29.6c0-4.5,3.7-8.6,7.8-8.6c2.9,0,5,2.1,5,5c0,4.2-3.8,8.7-7.8,8.7
			C143.9,34.7,142.1,32.5,142.1,29.6L142.1,29.6z"/>
		<path class="st0" d="M197.8,56.6c-5.5,11-11.4,21.8-28.1,21.8c-9.4,0-16.8-5.3-16.8-15.3c0-12.5,8.4-24.4,20.8-24.4
			c7.5,0,11.5,5.5,11.5,11.2c0,11.4-12.8,16.4-22.4,14.2c0.7,3.8,3.4,6.1,9,6.1c9.2,0,14.9-4.9,21.6-18.4L197.8,56.6L197.8,56.6z
			 M163,58.2c6.1,0.7,13.2-2.6,13.3-7.8c0.1-2.2-1.1-3.7-3.2-3.7C168.2,46.7,164.2,51.8,163,58.2L163,58.2z"/>
		<path class="st0" d="M188.5,66.8c0-7.2,4.1-19,8.3-27.1h10.3c-4.1,8.5-8.7,19.2-8.7,25.5c0,2.3,0.8,3.7,2.7,3.7
			c6.8,0,11.6-17.7,15.4-29.2h9.7c-2.9,8.7-7.2,20.6-7.2,25.8c0,1.9,0.7,3.5,3,3.5c5.2,0,13.6-13.8,13.2-29.3h10.2
			c0.8,18.9-11.2,38.8-25.1,38.8c-5.6,0-8.6-3.3-9.4-7.2c-2.9,4.3-6.8,7.2-12,7.2C191.7,78.5,188.5,73.4,188.5,66.8L188.5,66.8z"/>
	</g>
</g>
</svg>
