<?xml version="1.0" encoding="UTF-8"?>
<svg id="_レイヤー_2" data-name="レイヤー 2" xmlns="http://www.w3.org/2000/svg" viewBox="0 0 194.89 68.23">
  <defs>
    <style>
      .cls-1 {
        fill: #fff;
        stroke-width: 0px;
      }
    </style>
  </defs>
  <g id="TOP">
    <g>
      <path class="cls-1" d="m42.74,18.46c0,16.9-15.76,27.12-30.67,25.84-1.35,4.12-2.7,8.24-3.91,12.21H0c4.26-12.99,9.51-27.33,13.92-40.33h7.6c-2.27,6.75-4.69,13.84-7.03,20.94,10.15.71,20.66-6.74,20.66-18.1,0-6.82-6.18-11.93-13.42-11.93-5.4,0-10.58,1.99-14.34,4.69l-3.62-6.18C8.09,2.41,14.55,0,21.94,0c12.21.07,20.8,8.73,20.8,18.46Z"/>
      <path class="cls-1" d="m63.33,34.58c-2.63,6.04-9.3,16.26-16.19,16.26-11,0-5.75-13.84-.14-28.83h7.38c-4.47,12.07-8.8,22.01-4.97,22.01,2.77,0,7.24-5.4,10.86-12.85l3.05,3.41Zm-14.7-20.09c0-3.34,2.77-6.39,5.82-6.39,2.13,0,3.69,1.56,3.69,3.69,0,3.12-2.84,6.46-5.82,6.46-2.34,0-3.69-1.63-3.69-3.76Z"/>
      <path class="cls-1" d="m89.25,34.58c-4.12,8.17-8.52,16.26-20.94,16.26-6.53,0-11.57-4.12-11.57-11.43,0-9.58,6.89-18.1,15.12-18.1,7.45,0,10.22,7.03,7.95,13.63h-7.46c1.42-4.12.85-7.31-1.49-7.31-3.27,0-6.6,5.68-6.6,10.93,0,3.98,2.06,6.25,5.61,6.25,6.89,0,11.15-3.62,16.19-13.7l3.2,3.48Z"/>
      <path class="cls-1" d="m115.23,43.81c-3.34,3.69-9.02,7.03-15.55,7.03-6.11,0-9.58-5.18-7.74-12.07,6.03-.35,11.5-5.4,11.5-8.88,0-1.28-.92-2.34-2.41-2.34-6.32,0-11.5,12.14-14.55,22.51l-7.17.07c4.97-14.84,10.08-29.68,15.19-44.59h7.74c-2.56,6.6-5.82,15.26-8.31,21.87,2.48-3.55,6.25-6.11,9.8-6.11,4.26,0,7.03,2.98,7.03,6.96,0,6.96-6.75,12.64-13.84,13.42.43,1.92,1.85,3.12,4.33,3.12,4.05,0,8.45-3.48,11-5.96l2.98,4.97Z"/>
      <path class="cls-1" d="m141.57,1.21h8.31c-8.95,20.95-19.1,48.28-8.24,48.28,10.15,0,17.32-25.56,23.36-48.28h8.38c-9.16,32.73-16.05,56.02-32.87,56.02-20.02,0-10.86-27.62,1.06-56.02Z"/>
      <path class="cls-1" d="m158.04,68.23c5.32-15.34,10.58-30.96,15.83-46.22h7.24l-2.41,6.04c2.27-3.83,5.89-6.67,9.8-6.67s6.39,3.12,6.39,8.66c0,8.17-5.32,20.87-15.34,20.87-2.98,0-4.97-.71-7.6-2.55-1.85,5.25-3.9,12.14-6.25,19.88h-7.67Zm29.25-36.85c0-2.34-.85-3.83-2.63-3.83-2.84-.07-6.96,4.26-11.15,15.62.99,1.14,2.7,1.85,4.76,1.85,5.68,0,9.02-8.09,9.02-13.63Z"/>
    </g>
  </g>
</svg>