<?xml version="1.0" encoding="utf-8"?>
<!-- Generator: Adobe Illustrator 27.9.0, SVG Export Plug-In . SVG Version: 6.00 Build 0)  -->
<svg version="1.1" id="_レイヤー_2" xmlns="http://www.w3.org/2000/svg" xmlns:xlink="http://www.w3.org/1999/xlink" x="0px"
	 y="0px" viewBox="0 0 172.6 96" style="enable-background:new 0 0 172.6 96;" xml:space="preserve">
<style type="text/css">
	.st0{fill:#1B2A44;}
</style>
<g id="TOP">
	<g>
		<path class="st0" d="M32.5,51.6c5,1.7,8.7,5.8,8.7,10.4c0,9.2-10.1,14.5-20.9,14.5c-8.1,0-17-3.1-20.4-5.4l3.5-6.8
			c1.4,0.8,2.9,1.6,4.5,2.3c3.5-10.5,7.3-21,10.6-31.5h8.1l-4.3,12.4c9.8,0.1,19.2-3.9,19.2-11.5c0-6-6.3-9.1-12.7-9.1
			c-5.7,0-11.6,1.8-16.1,4.5l-3.1-6.6c5.1-3.3,12.4-5.2,19.2-5.2c11.5,0,20.9,6.2,20.9,15.5C49.8,43,42.4,49.8,32.5,51.6z M33,62
			c0-4.5-6.3-7.8-12.6-8.2c-1.8,5.1-3.5,10.2-5,15.3c1.9,0.4,3.8,0.7,5.8,0.7C27.6,69.8,33,66.9,33,62z"/>
		<path class="st0" d="M82.5,53.8c-2.6,6-9.3,16.3-16.1,16.3c-4.3,0-6.7-3.1-6.7-6.8c0-4.4,2.3-8.9,5-14.8c-1.6-0.1-3.6-0.3-5.4-0.9
			c-3.1,9-7.8,17.5-11.5,22.4L43,66.3c5.4-7,10.7-18.9,12.2-27.6h6.6l-0.6,2.8c3.3,0.9,10.1,1.2,13.1,1.1c-2.8,5.9-7,15.4-7,18.7
			c0,1.1,0.6,1.8,1.6,1.8c2.7,0,7.5-6,10.7-12.9L82.5,53.8L82.5,53.8z"/>
		<path class="st0" d="M113.8,53.8c-2.7,6-9.4,16.3-16.2,16.3c-3.4,0-5.3-2.3-5.8-4.8c-1.6,2.5-4.1,4.8-8.1,4.8c-4.9,0-8-4-8-10.3
			c0-9.5,6.6-19.2,14.6-19.2c2.8,0,5.6,1.8,6.7,3.7l1-3h7.2c-6.2,17-8.1,22-5.4,22s7.2-5.4,10.8-12.8L113.8,53.8L113.8,53.8z
			 M95.3,49.3c-0.9-1.4-2.5-2.3-4.3-2.3c-4.7,0-7.8,6.6-7.8,12.1c0,2.3,1,4.2,3.3,4.2C89.7,63.2,92.5,58.7,95.3,49.3z"/>
		<path class="st0" d="M121.1,63.8c0-5.5,5.2-11.5,5.2-14.8c0-1.1-0.4-1.9-1.7-1.9c-5.7,0-11.3,14.5-13.4,22.3h-7.4
			c3.2-9.4,6.3-18.7,9.6-28.1h7.2l-2,5.8c2.6-4.3,6.4-6.5,9.9-6.5s5.8,2.3,5.8,5.8c0.1,5.2-5.6,12.3-5.6,15.4c0,0.9,0.6,1.5,1.5,1.5
			c2.8,0,7.2-5.6,10.7-12.8l3.1,3.4c-2.7,6-9.3,16.3-16.4,16.3C123.2,70,121,67.4,121.1,63.8L121.1,63.8z"/>
		<path class="st0" d="M172.6,60.3c-2.2,3.9-7.7,9.7-13.6,9.7h-0.1c-3.3,0-5.2-2.3-5.6-4.8c-1.6,2.5-4.1,4.8-8.2,4.8
			c-4.9,0-7.9-4.1-7.9-10.4c0-9.4,6.5-19.1,14.6-19.1c2.8,0,5.6,1.8,6.7,3.7c2.3-6.5,4.4-12.9,6.5-19.4h7.4
			c-11.4,31.1-14.2,38.5-11.1,38.5c1.8,0,5-3.3,7.5-6.9C168.6,56.3,172.6,60.3,172.6,60.3z M156.6,49.3c-0.9-1.3-2.5-2.3-4.3-2.3
			c-4.7,0-7.9,6.5-7.9,12c0,2.3,1.1,4.3,3.3,4.3C151,63.2,153.8,58.7,156.6,49.3L156.6,49.3z"/>
	</g>
</g>
</svg>
