<?xml version="1.0" encoding="utf-8"?>
<!-- Generator: Adobe Illustrator 27.9.0, SVG Export Plug-In . SVG Version: 6.00 Build 0)  -->
<svg version="1.1" id="_レイヤー_2" xmlns="http://www.w3.org/2000/svg" xmlns:xlink="http://www.w3.org/1999/xlink" x="0px"
	 y="0px" viewBox="0 0 210 96" style="enable-background:new 0 0 210 96;" xml:space="preserve">
<style type="text/css">
	.st0{fill:#1B2A44;}
</style>
<g id="TOP">
	<g>
		<path class="st0" d="M27.1,52.5c2.1,5.7,4.9,12.1,7.5,17.5H26c-2.1-4.8-4.2-10.6-5.8-15.5c-2.3,0.4-4.8,0.6-7.2,0.5
			c-1.7,5.1-3.3,10.1-4.9,15H0c4.4-13,9.3-27.3,14.1-40.3h7.6c-2.1,5.9-4.3,12.1-6.4,18.3c12.1-0.5,20.2-7.5,20.2-16.5
			c0-6.2-5.2-10.9-12.1-10.9c-6.3,0-11.5,2.1-15.5,5l-3.6-6.4c4.8-3,10.9-5.8,19.1-5.8c12,0,20,7.7,20,17.7S36.4,48.8,27.1,52.5z"/>
		<path class="st0" d="M80.3,48.1c-2.7,6-9.4,16.3-16.2,16.3c-3.4,0-5.3-2.3-5.8-4.8c-1.6,2.5-4.1,4.8-8.1,4.8c-4.9,0-8-4-8-10.3
			c0-9.5,6.6-19.2,14.6-19.2c2.8,0,5.6,1.8,6.7,3.7l1-3h7.2c-6.2,17-8.1,22-5.4,22c2.7,0,7.2-5.4,10.8-12.9L80.3,48.1L80.3,48.1z
			 M61.8,43.7c-0.9-1.4-2.5-2.3-4.3-2.3c-4.7,0-7.8,6.6-7.8,12.1c0,2.3,1,4.2,3.3,4.2C56.2,57.6,59,53.1,61.8,43.7z"/>
		<path class="st0" d="M87.5,58.2c0-5.5,5.2-11.5,5.2-14.8c0-1.1-0.4-1.9-1.7-1.9c-5.7,0-11.3,14.5-13.4,22.3h-7.4
			c3.2-9.4,6.3-18.7,9.6-28.1H87l-2,5.8c2.6-4.3,6.4-6.5,9.9-6.5s5.8,2.3,5.8,5.8c0.1,5.2-5.6,12.3-5.6,15.4c0,0.9,0.6,1.5,1.5,1.5
			c2.8,0,7.2-5.6,10.7-12.9l3.1,3.4c-2.7,6-9.3,16.3-16.4,16.3C89.7,64.4,87.5,61.8,87.5,58.2L87.5,58.2z"/>
		<path class="st0" d="M141.1,48.1c-4.1,8.2-8.5,16.3-20.9,16.3c-5.8,0-9-5.2-7.2-12.1c6.4-0.3,11.5-5.4,11.5-8.9
			c0-1.3-0.9-2.3-2.4-2.3c-6.3,0-11.5,12.1-14.6,22.5l-7.2,0.1c5-14.8,10.1-29.7,15.2-44.6h7.7c-2.6,6.6-5.8,15.3-8.3,21.9
			c2.5-3.6,6.2-6.1,9.8-6.1c4.3,0,7,3,7,7c0,7-6.7,12.7-13.8,13.4c0.4,1.9,1.3,3.1,3.8,3.1c6.9,0,11.2-3.6,16.2-13.7L141.1,48.1
			L141.1,48.1z"/>
		<path class="st0" d="M157.2,48.1c-2.6,6-9.3,16.3-16.2,16.3c-11,0-5.8-13.8-0.1-28.8h7.4c-4.5,12.1-8.8,22-5,22
			c2.8,0,7.2-5.4,10.9-12.9L157.2,48.1L157.2,48.1z M142.5,28.1c0-3.3,2.8-6.4,5.8-6.4c2.1,0,3.7,1.6,3.7,3.7c0,3.1-2.8,6.5-5.8,6.5
			C143.8,31.8,142.5,30.2,142.5,28.1z"/>
		<path class="st0" d="M164.4,58.2c0-5.5,5.2-11.5,5.2-14.8c0-1.1-0.4-1.9-1.7-1.9c-5.7,0-11.3,14.5-13.4,22.3h-7.4
			c3.2-9.4,6.3-18.7,9.6-28.1h7.2l-2,5.8c2.6-4.3,6.4-6.5,9.9-6.5s5.8,2.3,5.8,5.8c0.1,5.2-5.6,12.3-5.6,15.4c0,0.9,0.6,1.5,1.5,1.5
			c2.8,0,7.2-5.6,10.7-12.9l3.1,3.4c-2.7,6-9.3,16.3-16.4,16.3C166.6,64.4,164.4,61.8,164.4,58.2L164.4,58.2z"/>
		<path class="st0" d="M173.4,75.4c0-8,10.4-12,20.8-12.6l2-5.7c-1.7,2.1-4.5,3.2-7,3.2c-4.8,0-8.4-3.5-8.4-9
			c0-8.6,6-16.5,13.6-16.5c3.5,0,6.1,1.4,7.5,3.3l0.9-2.6h7.2l-10.6,31.8c-3.6,10.5-10.4,15.2-17,15.2
			C177.1,82.6,173.4,79.9,173.4,75.4L173.4,75.4z M192.5,68c-5.4,0.4-12.1,2.9-12.1,6.5c0,1.5,1,2.2,2.8,2.2
			C186.6,76.7,190.1,73.6,192.5,68z M200.1,43.1c-0.9-1-2.9-2.1-4.8-2.1c-5,0-7.2,5-7.2,9.2c0,2.7,1.4,4.3,3.8,4.3
			C196,54.5,198.2,48.4,200.1,43.1L200.1,43.1z"/>
	</g>
</g>
</svg>
