<?xml version="1.0" encoding="UTF-8"?>
<svg id="_レイヤー_2" data-name="レイヤー 2" xmlns="http://www.w3.org/2000/svg" viewBox="0 0 307.57 56.66">
  <defs>
    <style>
      .cls-1 {
        fill: #1b2a44;
        stroke-width: 0px;
      }
    </style>
  </defs>
  <g id="TOP">
    <g>
      <path class="cls-1" d="m27.12,39.12c2.13,5.68,4.9,12.14,7.53,17.54h-8.66c-2.13-4.76-4.19-10.58-5.82-15.55-2.34.36-4.76.57-7.17.5-1.7,5.11-3.34,10.15-4.9,15.05H0c4.4-12.99,9.3-27.33,14.06-40.33h7.6c-2.13,5.89-4.26,12.07-6.39,18.32,12.14-.5,20.23-7.53,20.23-16.54,0-6.18-5.18-10.93-12.14-10.93-6.32,0-11.5,2.13-15.48,4.97l-3.62-6.39C9.02,2.77,15.19,0,23.36,0c12,0,20.02,7.74,20.02,17.68s-7.03,17.68-16.26,21.44Z"/>
      <path class="cls-1" d="m75.83,34.72c-4.12,8.17-8.52,16.26-20.94,16.26-7.03,0-12.5-3.98-12.5-11.36,0-9.3,6.25-18.18,15.48-18.18,5.61,0,8.59,4.12,8.59,8.38,0,8.45-9.51,12.21-16.68,10.58.5,2.84,2.56,4.54,6.67,4.54,6.89,0,11.08-3.62,16.12-13.7l3.27,3.48Zm-25.91,1.21c4.54.5,9.8-1.92,9.87-5.82.07-1.63-.85-2.77-2.41-2.77-3.55,0-6.53,3.83-7.45,8.59Z"/>
      <path class="cls-1" d="m101.74,34.72c-4.12,8.17-8.52,16.26-20.94,16.26-6.53,0-11.57-4.12-11.57-11.43,0-9.58,6.89-18.11,15.12-18.11,7.45,0,10.22,7.03,7.95,13.63h-7.46c1.42-4.12.85-7.31-1.49-7.31-3.27,0-6.6,5.68-6.6,10.93,0,3.98,2.06,6.25,5.61,6.25,6.89,0,11.15-3.62,16.19-13.7l3.2,3.48Z"/>
      <path class="cls-1" d="m131.85,32.73c-1.56,2.98-6.82,6.39-12.21,5.54-2.06,6.96-7.45,12.71-14.91,12.71-6.03,0-9.73-4.4-9.73-10.37,0-9.87,6.6-19.17,16.05-19.17,6.25,0,9.51,5.18,9.51,10.44v.57c3.05.78,6.11-.28,7.95-3.34l3.34,3.62Zm-18.67-.28c0-2.77-1.14-4.76-3.34-4.76-3.83,0-7.53,6.75-7.53,11.93,0,3.2,1.35,4.83,3.41,4.83,3.69,0,7.45-6.6,7.45-12Z"/>
      <path class="cls-1" d="m153.57,44.73c0-5.47,5.32-11.57,5.32-14.84,0-1.14-.5-1.92-1.7-1.92-5.75,0-10.93,14.41-13.28,22.29h-7.17c4.97-14.06,6.46-17.75,6.46-20.31,0-1.14-.64-1.99-1.7-1.99-5.75,0-10.58,13.7-13.21,22.29h-7.24c3.19-9.37,6.32-18.74,9.51-28.12h7.1l-2.13,5.89c3.27-4.33,6.82-6.6,10.22-6.6s5.54,2.7,4.97,6.53c2.63-4.33,6.67-6.53,10.15-6.53s5.75,2.41,5.75,5.75c.14,5.11-5.54,12.42-5.54,15.48,0,.92.57,1.49,1.49,1.49,2.84,0,7.17-5.61,10.79-12.85l3.05,3.41c-2.63,6.04-9.3,16.26-16.4,16.26-4.26,0-6.46-2.63-6.46-6.25Z"/>
      <path class="cls-1" d="m199.08,44.73c0-5.47,5.32-11.57,5.32-14.84,0-1.14-.5-1.92-1.7-1.92-5.75,0-10.93,14.41-13.28,22.29h-7.17c4.97-14.06,6.46-17.75,6.46-20.31,0-1.14-.64-1.99-1.7-1.99-5.75,0-10.58,13.7-13.21,22.29h-7.24c3.2-9.37,6.32-18.74,9.51-28.12h7.1l-2.13,5.89c3.27-4.33,6.82-6.6,10.22-6.6s5.54,2.7,4.97,6.53c2.63-4.33,6.67-6.53,10.15-6.53s5.75,2.41,5.75,5.75c.14,5.11-5.54,12.42-5.54,15.48,0,.92.57,1.49,1.49,1.49,2.84,0,7.17-5.61,10.79-12.85l3.05,3.41c-2.63,6.04-9.3,16.26-16.4,16.26-4.26,0-6.46-2.63-6.46-6.25Z"/>
      <path class="cls-1" d="m248.78,34.72c-4.12,8.17-8.52,16.26-20.94,16.26-7.03,0-12.5-3.98-12.5-11.36,0-9.3,6.25-18.18,15.48-18.18,5.61,0,8.59,4.12,8.59,8.38,0,8.45-9.51,12.21-16.68,10.58.5,2.84,2.56,4.54,6.67,4.54,6.89,0,11.08-3.62,16.12-13.7l3.27,3.48Zm-25.91,1.21c4.54.5,9.8-1.92,9.87-5.82.07-1.63-.85-2.77-2.41-2.77-3.55,0-6.53,3.83-7.45,8.59Z"/>
      <path class="cls-1" d="m256.02,44.73c0-5.47,5.25-11.5,5.25-14.84,0-1.14-.43-1.92-1.7-1.92-5.68,0-11.29,14.48-13.42,22.29h-7.38c3.19-9.37,6.32-18.74,9.58-28.12h7.17l-1.99,5.82c2.56-4.33,6.39-6.53,9.87-6.53s5.75,2.34,5.75,5.82c.14,5.25-5.61,12.35-5.61,15.41,0,.92.57,1.49,1.49,1.49,2.77,0,7.17-5.61,10.72-12.85l3.12,3.41c-2.7,6.04-9.3,16.26-16.4,16.26-4.26,0-6.46-2.63-6.46-6.25Z"/>
      <path class="cls-1" d="m307.57,41.25c-2.2,3.91-7.74,9.66-13.63,9.73h-.07c-3.34,0-5.25-2.34-5.61-4.76-1.63,2.48-4.12,4.76-8.17,4.76-4.9,0-7.95-4.12-7.95-10.44,0-9.44,6.53-19.1,14.55-19.1,2.84,0,5.61,1.78,6.67,3.69,2.27-6.46,4.4-12.92,6.53-19.45h7.38c-11.36,31.1-14.2,38.48-11.15,38.48,1.77,0,5.04-3.34,7.45-6.89l3.98,3.98Zm-15.97-11c-.92-1.35-2.49-2.34-4.26-2.34-4.69,0-7.88,6.53-7.88,12,0,2.27,1.06,4.26,3.27,4.26,3.2,0,6.03-4.54,8.88-13.92Z"/>
    </g>
  </g>
</svg>