<?xml version="1.0" encoding="utf-8"?>
<!-- Generator: Adobe Illustrator 27.9.0, SVG Export Plug-In . SVG Version: 6.00 Build 0)  -->
<svg version="1.1" id="_レイヤー_2" xmlns="http://www.w3.org/2000/svg" xmlns:xlink="http://www.w3.org/1999/xlink" x="0px"
	 y="0px" viewBox="0 0 270.2 96" style="enable-background:new 0 0 270.2 96;" xml:space="preserve">
<style type="text/css">
	.st0{fill:#FFFFFF;}
</style>
<g id="TOP">
	<g>
		<path class="st0" d="M0,55.3C0,32.9,14.8,2.5,36.6,2.5c13.2,0,20.1,12.2,15.7,26.8H41.2c3.4-9.6,0-16.4-6.2-16.4
			c-12.6,0-23.8,23.6-23.8,41.8c0,8.4,3.3,13.5,10,13.5c6.3,0,11.2-5.5,15.2-13.3l9.3,4c-4.3,10.9-13.2,19.9-26.1,19.9
			C9.4,78.8,0,71.2,0,55.3z"/>
		<path class="st0" d="M99.7,45.7c-2.1,4-9.2,8.6-16.4,7.4c-2.8,9.3-10,17.1-20,17.1c-8.1,0-13.1-5.9-13.1-13.9
			c0-13.3,8.9-25.8,21.6-25.8c8.4,0,12.8,7,12.8,14v0.8c4.1,1,8.2-0.4,10.7-4.5L99.7,45.7L99.7,45.7z M74.6,45.3
			c0-3.7-1.5-6.4-4.5-6.4c-5.2,0-10.1,9.1-10.1,16c0,4.3,1.8,6.5,4.6,6.5C69.5,61.4,74.6,52.5,74.6,45.3L74.6,45.3z"/>
		<path class="st0" d="M108.2,61.8c0-7.3,7.1-15.5,7.1-19.9c0-1.5-0.6-2.6-2.3-2.6c-7.6,0-15.2,19.5-18,29.9h-9.9
			c4.3-12.6,8.5-25.2,12.9-37.8h9.6l-2.7,7.8c3.4-5.8,8.6-8.8,13.3-8.8s7.7,3.2,7.7,7.8c0.2,7.1-7.5,16.6-7.5,20.7c0,1.2,0.8,2,2,2
			c3.7,0,9.6-7.5,14.4-17.3l4.2,4.6c-3.6,8.1-12.5,21.8-22,21.8C111.2,70.2,108.2,66.7,108.2,61.8L108.2,61.8z"/>
		<path class="st0" d="M173.8,48.3c-5.5,11-11.4,21.8-28.1,21.8c-8.8,0-15.5-5.5-15.5-15.3c0-12.9,9.2-24.3,20.3-24.3
			c10,0,13.7,9.4,10.7,18.3h-10c1.9-5.5,1.1-9.8-2-9.8c-4.4,0-8.9,7.6-8.9,14.7c0,5.3,2.8,8.4,7.5,8.4c9.2,0,15-4.9,21.7-18.4
			L173.8,48.3L173.8,48.3z"/>
		<path class="st0" d="M209.8,48.3c-5.5,11-11.4,21.8-28.1,21.8c-9.4,0-16.8-5.3-16.8-15.3c0-12.5,8.4-24.4,20.8-24.4
			c7.5,0,11.5,5.5,11.5,11.2c0,11.4-12.8,16.4-22.4,14.2c0.7,3.8,3.4,6.1,9,6.1c9.2,0,14.9-4.9,21.6-18.4L209.8,48.3L209.8,48.3z
			 M175,49.9c6.1,0.7,13.2-2.6,13.3-7.8c0.1-2.2-1.1-3.7-3.2-3.7C180.2,38.4,176.2,43.6,175,49.9L175,49.9z"/>
		<path class="st0" d="M188.1,93.5c7.1-20.6,14.2-41.6,21.3-62.1h9.7l-3.2,8.1c3.1-5.2,7.9-9,13.2-9s8.6,4.2,8.6,11.6
			c0,6.6-4.3,16.4-9.8,20.1c6.4-0.7,13.3-7.1,18.1-18.7l4.2,5.2c-8.4,19.3-19,21.4-30.1,21.4c-4.9,0-9.6-0.9-13.2-3.4
			c-2.5,7.1-5.2,16.3-8.4,26.7L188.1,93.5L188.1,93.5z M227.4,44c0-3.2-1.1-5.2-3.5-5.2c-3.8-0.1-9.4,5.7-15,21.1
			c1.3,1.4,3.6,2.4,6.3,2.4C221.4,62.4,227.4,51.5,227.4,44z"/>
		<path class="st0" d="M270.2,57.1c-3,5.2-10.6,13.1-18.4,13.1c-13.3,0-11-14-5.1-31.2h-4.1l2.6-7.5h4.2l5-13.3h9.9
			c-2,5-3.7,9.4-5.2,13.3h8l-2.7,7.5h-8.1c-6,16.8-6.1,22-1.3,22c2.3,0,6.8-4.5,9.9-9.2L270.2,57.1L270.2,57.1z"/>
	</g>
</g>
</svg>
