<?xml version="1.0" encoding="UTF-8"?>
<svg id="_レイヤー_2" data-name="レイヤー 2" xmlns="http://www.w3.org/2000/svg" viewBox="0 0 262.55 67.88">
  <defs>
    <style>
      .cls-1 {
        fill: #1b2a44;
        stroke-width: 0px;
      }
    </style>
  </defs>
  <g id="TOP">
    <g>
      <path class="cls-1" d="m0,55.38C6.18,37.27,12.5,17.89,18.89,0h7.95c-6.39,17.89-12.92,37.27-18.81,55.38H0Z"/>
      <path class="cls-1" d="m34.93,43.45c0-5.47,5.25-11.5,5.25-14.84,0-1.14-.43-1.92-1.7-1.92-5.68,0-11.29,14.48-13.42,22.29h-7.38c3.19-9.37,6.32-18.74,9.58-28.12h7.17l-1.99,5.82c2.56-4.33,6.39-6.53,9.87-6.53s5.75,2.34,5.75,5.82c.14,5.25-5.61,12.35-5.61,15.41,0,.92.57,1.49,1.49,1.49,2.77,0,7.17-5.61,10.72-12.85l3.12,3.41c-2.7,6.04-9.3,16.26-16.4,16.26-4.26,0-6.46-2.63-6.46-6.25Z"/>
      <path class="cls-1" d="m83.14,33.37c-4.9,10.72-10.08,16.4-21.58,16.4-5.18,0-10.65-2.34-12.71-6.74-.85-1.56-.43-2.91.99-4.9,3.98-5.96,6.46-11.15,8.66-18.6h8.02c2.06,4.19,5.75,10.93,5.68,16.19,0,3.05-.92,5.89-2.91,7.74,3.55-1.7,7.45-6.32,10.86-13.84l2.98,3.76Zm-18.03,3.91c0-3.76-1.42-7.38-2.98-10.51-1.85,5.82-4.83,10.86-7.31,14.2,1.06,1.49,2.77,2.84,5.11,2.84,3.34,0,5.18-3.2,5.18-6.53Z"/>
      <path class="cls-1" d="m100.46,33.44c-2.7,6.04-9.37,16.26-16.19,16.26-9.87,0-8.16-10.44-3.83-23.22h-3.05l1.92-5.61h3.12l3.69-9.87h7.38c-1.49,3.69-2.77,6.96-3.91,9.87h5.96l-1.99,5.61h-6.03c-4.47,12.5-4.54,16.4-.99,16.4,2.77,0,7.24-5.4,10.79-12.85l3.12,3.41Z"/>
      <path class="cls-1" d="m131.7,33.44c-2.7,6.04-9.37,16.26-16.19,16.26-3.41,0-5.32-2.34-5.75-4.76-1.56,2.49-4.12,4.76-8.09,4.76-4.9,0-8.02-4.05-8.02-10.29,0-9.51,6.6-19.24,14.63-19.24,2.84,0,5.61,1.77,6.67,3.69l.99-2.98h7.24c-6.25,17.04-8.09,22.01-5.4,22.01s7.17-5.4,10.79-12.85l3.12,3.41Zm-18.46-4.47c-.92-1.35-2.48-2.34-4.26-2.34-4.69,0-7.81,6.6-7.81,12.07,0,2.27.99,4.19,3.27,4.19,3.12,0,5.96-4.54,8.8-13.92Z"/>
      <path class="cls-1" d="m162.73,33.44c-3.83,8.45-9.58,15.41-18.74,18.74l-.14.5c-3.55,10.51-10.37,15.19-17.04,15.19-5.25,0-9.02-2.7-9.02-7.17,0-8.02,10.37-12,20.8-12.57l1.99-5.68c-1.7,2.13-4.54,3.2-7.03,3.2-4.76,0-8.38-3.55-8.38-8.95,0-8.59,6.04-16.54,13.63-16.54,3.48,0,6.11,1.42,7.53,3.27l.85-2.56h7.24l-8.16,24.42c5.4-2.84,9.37-7.17,13.28-15.26l3.19,3.41Zm-25.84,19.88c-5.4.43-12.14,2.91-12.14,6.46,0,1.49.99,2.2,2.84,2.2,3.41,0,6.96-3.05,9.3-8.66Zm7.6-24.92c-.85-.99-2.91-2.13-4.83-2.13-4.97,0-7.24,5.04-7.24,9.23,0,2.7,1.42,4.26,3.76,4.26,4.26,0,6.46-6.11,8.31-11.36Z"/>
      <path class="cls-1" d="m188.57,33.44c-2.63,5.96-9.37,16.26-16.12,16.26-4.33,0-6.6-3.12-6.6-6.75,0-4.4,2.2-8.95,4.97-14.84-1.42-.07-3.12-.28-4.76-.71-2.91,6.96-6.46,12.28-10.15,16.68-3.48,4.12-6.11-.14-3.05-3.69,5.04-5.89,7.88-14.41,9.8-22.01h6.46c-.28,1.06-.57,2.06-.92,3.12,3.48.64,9.37.92,12.07.85-2.7,5.89-6.96,15.41-6.96,18.67,0,1.14.57,1.85,1.56,1.85,2.7,0,7.46-6.03,10.58-12.85l3.12,3.41Z"/>
      <path class="cls-1" d="m219.81,33.44c-2.7,6.04-9.37,16.26-16.19,16.26-3.41,0-5.32-2.34-5.75-4.76-1.56,2.49-4.12,4.76-8.09,4.76-4.9,0-8.02-4.05-8.02-10.29,0-9.51,6.6-19.24,14.63-19.24,2.84,0,5.61,1.77,6.67,3.69l.99-2.98h7.24c-6.25,17.04-8.09,22.01-5.4,22.01s7.17-5.4,10.79-12.85l3.12,3.41Zm-18.46-4.47c-.92-1.35-2.48-2.34-4.26-2.34-4.69,0-7.81,6.6-7.81,12.07,0,2.27.99,4.19,3.27,4.19,3.12,0,5.96-4.54,8.8-13.92Z"/>
      <path class="cls-1" d="m262.55,39.97c-2.2,3.9-7.81,9.73-13.7,9.73-4.26,0-6.46-2.63-6.46-6.25,0-5.47,5.32-11.57,5.32-14.84,0-1.14-.5-1.92-1.7-1.92-5.75,0-10.93,14.41-13.28,22.29h-7.17c4.97-14.06,6.46-17.75,6.46-20.31,0-1.14-.64-1.99-1.7-1.99-5.75,0-10.58,13.7-13.21,22.29h-7.24c3.19-9.37,6.32-18.74,9.51-28.12h7.1l-2.13,5.89c3.27-4.33,6.82-6.6,10.22-6.6s5.54,2.7,4.97,6.53c2.63-4.33,6.67-6.53,10.15-6.53s5.75,2.41,5.75,5.75c.14,5.11-5.54,12.43-5.54,15.48,0,.92.43,1.49,1.28,1.49,1.7,0,5.04-3.34,7.38-6.89l3.98,3.98Z"/>
    </g>
  </g>
</svg>