<?xml version="1.0" encoding="UTF-8"?>
<svg id="_レイヤー_2" data-name="レイヤー 2" xmlns="http://www.w3.org/2000/svg" viewBox="0 0 23.51 22.4">
  <defs>
    <style>
      .cls-1 {
        fill: #dac465;
        stroke-width: 0px;
      }
    </style>
  </defs>
  <g id="TOP">
    <path class="cls-1" d="m23.51,9.54C23.51,4.28,18.24,0,11.75,0S0,4.28,0,9.54C0,14.25,4.18,18.2,9.83,18.95c.38.08.9.25,1.04.58.12.3.08.76.04,1.06,0,0-.14.83-.17,1.01-.05.3-.24,1.16,1.02.63,1.25-.53,6.77-3.99,9.23-6.82h0c1.7-1.87,2.52-3.76,2.52-5.87Zm-16.35,3.13h-2.34c-.34,0-.62-.28-.62-.62v-4.67c0-.34.28-.62.62-.62s.62.28.62.62v4.05h1.72c.34,0,.62.28.62.62s-.28.62-.62.62Zm2.42-.62c0,.34-.28.62-.62.62s-.62-.28-.62-.62v-4.67c0-.34.28-.62.62-.62s.62.28.62.62v4.67Zm5.62,0c0,.27-.17.5-.42.59-.06.02-.13.03-.2.03-.19,0-.38-.09-.49-.25l-2.39-3.26v2.89c0,.34-.28.62-.62.62s-.62-.28-.62-.62v-4.67c0-.27.17-.5.42-.58.06-.02.13-.03.2-.03.19,0,.38.09.49.25l2.39,3.26v-2.89c0-.34.28-.62.62-.62s.62.28.62.62v4.67Zm3.78-2.95c.34,0,.62.28.62.62s-.28.62-.62.62h-1.72v1.1h1.72c.34,0,.62.28.62.62s-.28.62-.62.62h-2.34c-.34,0-.62-.28-.62-.62v-2.33h0v-2.33h0c0-.34.28-.62.62-.62h2.34c.34,0,.62.28.62.62s-.28.62-.62.62h-1.72v1.1h1.72Z"/>
  </g>
</svg>