<?xml version="1.0" encoding="UTF-8"?>
<svg id="_レイヤー_2" data-name="レイヤー 2" xmlns="http://www.w3.org/2000/svg" viewBox="0 0 19.03 19.03">
  <defs>
    <style>
      .cls-1 {
        fill: #1b2a44;
        stroke-width: 0px;
      }
    </style>
  </defs>
  <g id="TOP">
    <g>
      <path class="cls-1" d="m9.52,1.71c2.54,0,2.84,0,3.85.06.93.04,1.43.2,1.77.33.44.17.76.38,1.09.71.33.33.54.65.71,1.09.13.34.29.84.33,1.77.05,1,.06,1.3.06,3.85s0,2.84-.06,3.85c-.04.93-.2,1.43-.33,1.77-.17.44-.38.76-.71,1.09-.33.33-.65.54-1.09.71-.34.13-.84.29-1.77.33-1,.05-1.3.06-3.85.06s-2.84,0-3.85-.06c-.93-.04-1.43-.2-1.77-.33-.44-.17-.76-.38-1.09-.71-.33-.33-.54-.65-.71-1.09-.13-.34-.29-.84-.33-1.77-.05-1-.06-1.3-.06-3.85s0-2.84.06-3.85c.04-.93.2-1.43.33-1.77.17-.44.38-.76.71-1.09.33-.33.65-.54,1.09-.71.34-.13.84-.29,1.77-.33,1-.05,1.3-.06,3.85-.06m0-1.71c-2.58,0-2.91.01-3.92.06-1.01.05-1.7.21-2.31.44-.63.24-1.16.57-1.69,1.1-.53.53-.85,1.06-1.1,1.69-.24.61-.4,1.3-.44,2.31-.05,1.02-.06,1.34-.06,3.92s.01,2.91.06,3.92c.05,1.01.21,1.7.44,2.31.24.63.57,1.16,1.1,1.69.53.53,1.06.85,1.69,1.1.61.24,1.3.4,2.31.44,1.02.05,1.34.06,3.92.06s2.91-.01,3.92-.06c1.01-.05,1.7-.21,2.31-.44.63-.24,1.16-.57,1.69-1.1.53-.53.85-1.06,1.1-1.69.24-.61.4-1.3.44-2.31.05-1.02.06-1.34.06-3.92s-.01-2.91-.06-3.92c-.05-1.01-.21-1.7-.44-2.31-.24-.63-.57-1.16-1.1-1.69-.53-.53-1.06-.85-1.69-1.1-.61-.24-1.3-.4-2.31-.44-1.02-.05-1.34-.06-3.92-.06h0Z"/>
      <path class="cls-1" d="m9.52,4.63c-2.7,0-4.89,2.19-4.89,4.89s2.19,4.89,4.89,4.89,4.89-2.19,4.89-4.89-2.19-4.89-4.89-4.89Zm0,8.06c-1.75,0-3.17-1.42-3.17-3.17s1.42-3.17,3.17-3.17,3.17,1.42,3.17,3.17-1.42,3.17-3.17,3.17Z"/>
      <circle class="cls-1" cx="14.6" cy="4.44" r="1.14"/>
    </g>
  </g>
</svg>