<?xml version="1.0" encoding="UTF-8"?>
<svg id="_レイヤー_2" data-name="レイヤー 2" xmlns="http://www.w3.org/2000/svg" viewBox="0 0 11.66 11.66">
  <defs>
    <style>
      .cls-1, .cls-2 {
        stroke-width: 0px;
      }

      .cls-2 {
        fill: none;
      }
    </style>
  </defs>
  <g id="TOP">
    <g>
      <path class="cls-1" d="m8.74,4.37C8.74,1.96,6.78,0,4.37,0S0,1.96,0,4.37s1.96,4.37,4.37,4.37,4.37-1.96,4.37-4.37h0Zm-4.37,3.28c-1.81,0-3.28-1.47-3.28-3.28s1.47-3.28,3.28-3.28,3.28,1.47,3.28,3.28-1.47,3.28-3.28,3.28h0Z"/>
      <path class="cls-1" d="m11.33,9.79l-2.67-2.67c-.4.62-.93,1.15-1.54,1.54l2.67,2.67c.43.43,1.12.43,1.54,0,.43-.43.43-1.12,0-1.54h0Z"/>
      <rect class="cls-2" width="11.66" height="11.66"/>
    </g>
  </g>
</svg>