<?xml version="1.0" encoding="UTF-8"?>
<svg id="_レイヤー_2" data-name="レイヤー 2" xmlns="http://www.w3.org/2000/svg" viewBox="0 0 217.9 392.3">
  <defs>
    <style>
      .cls-1 {
        fill: #a4a8b2;
      }

      .cls-1, .cls-2 {
        stroke-width: 0px;
      }

      .cls-2 {
        fill: #1b2a44;
      }
    </style>
  </defs>
  <g id="TOP">
    <g>
      <g>
        <path class="cls-1" d="m15.57,252.22c6.55,0,16.3.44,23.58,5.39,5.68,3.78,10.62,11.21,10.62,21.54,0,14.85-9.75,25.76-24.45,26.78l30.86,43.38h-13.1l-29.55-42.5h-2.77v42.5H0v-97.09h15.57Zm-4.8,44.98h6.84c13.39,0,21.4-6.4,21.4-17.76,0-5.39-1.6-10.77-7.71-14.26-4.37-2.48-9.32-2.77-13.97-2.77h-6.55v34.79Z"/>
        <path class="cls-1" d="m126.64,321.94h-41.34l-11.64,27.36h-11.94l44.69-101.74,43.52,101.74h-11.94l-11.35-27.36Zm-4.22-10.19l-16.3-38.86-16.59,38.86h32.9Z"/>
        <path class="cls-1" d="m174.96,307.53l-31.88-55.31h12.52l24.74,43.38,25.04-43.38h12.52l-32.17,55.31v41.77h-10.77v-41.77Z"/>
      </g>
      <g>
        <path class="cls-2" d="m62.17,377.42c-.67,1.25-2.85,2.64-5.09,2.24-1.04,2.82-3.37,5.29-6.16,5.29-2,0-5.43-1.45-3.34-7.61,1.22-3.69,2.56-7.29,3.84-10.98h3.11c-1.04,2.64-2.18,5.55-3.14,8.19.79-.99,2.12-1.71,3.34-1.71,1.83,0,2.96,1.42,2.96,3.66,0,.29-.03.55-.06.84,1.22.26,2.44-.17,3.17-1.4l1.37,1.48Zm-7.58-.58c0-.93-.52-1.42-1.19-1.42-1.07,0-2.35,1.16-3.11,3.26-.79,2.38-.2,3.49.84,3.49,1.66,0,3.46-3.02,3.46-5.32Z"/>
        <path class="cls-2" d="m56.07,389.48c0-3.46,4.77-4.74,8.46-5.23l.87-2.5c-.58.84-1.71,1.48-2.85,1.48-4.07,0-3.14-4.68-.9-10.14h3.05c-1.42,3.49-2.99,7.64-1.05,7.64,2.18,0,3.34-4.42,4.39-7.64h3.02c-1.54,4.45-2.79,8.25-4.33,12.73-1.42,4.13-3.92,6.48-7.03,6.48-2.41,0-3.63-1.31-3.63-2.82Zm7.76-3.05c-2.15.2-4.91,1.28-4.91,2.64,0,.5.32.87,1.05.87,1.34,0,2.76-1.02,3.86-3.52Z"/>
        <path class="cls-2" d="m93.81,375.39l-.99,2.82h-1.57c-1.51,5.11-5,9.3-9.15,9.3-3.89,0-6.25-2.44-6.25-7.61,0-6.71,4.65-15.63,11.45-15.63,4.04,0,6.39,3.26,5.14,7.7h-3.31c.84-2.85-.61-4.5-2.33-4.5-4.3,0-7.61,6.86-7.61,12.32,0,2.96,1.08,4.71,3.2,4.71,2.47,0,4.56-3.17,5.64-6.28h-3.58l.96-2.82h8.4Z"/>
        <path class="cls-2" d="m107.81,378.23c-1.05,2.44-3.81,6.65-6.57,6.65-1.77,0-2.73-1.28-2.73-2.76,0-1.8.93-3.66,2.03-6.07-.64-.03-1.48-.12-2.21-.35-1.28,3.66-3.2,7.15-4.71,9.15l-1.98-1.48c2.21-2.88,4.36-7.73,5-11.3h2.7l-.26,1.16c1.34.35,4.13.49,5.34.46-1.13,2.41-2.87,6.31-2.87,7.64,0,.47.23.76.64.76,1.1,0,3.05-2.47,4.36-5.26l1.25,1.4Z"/>
        <path class="cls-2" d="m120.13,377.42c-.64,1.22-2.79,2.62-5,2.27-.84,2.85-3.05,5.2-6.1,5.2-2.47,0-3.98-1.8-3.98-4.24,0-4.04,2.7-7.85,6.57-7.85,2.56,0,3.89,2.12,3.89,4.27v.23c1.25.32,2.5-.12,3.25-1.37l1.37,1.48Zm-7.64-.12c0-1.13-.47-1.95-1.36-1.95-1.57,0-3.08,2.76-3.08,4.88,0,1.31.55,1.98,1.4,1.98,1.51,0,3.05-2.7,3.05-4.91Z"/>
        <path class="cls-2" d="m138.17,377.42c-.7,1.28-2.96,2.7-5.26,2.21-1.39,3.05-3.75,5.29-6.31,5.29-1.71,0-2.62-1.02-2.88-2.18-.87,1.31-2.06,2.18-3.66,2.18-2.15,0-3.11-1.57-3.11-3.58,0-2.18,1.25-5.78,2.53-8.25h3.14c-1.25,2.59-2.65,5.84-2.65,7.76,0,.7.23,1.13.82,1.13,2.06,0,3.54-5.41,4.68-8.89h2.96c-.87,2.64-2.21,6.28-2.21,7.85,0,.58.2,1.08.9,1.08,1.6,0,4.16-4.21,4.01-8.92h3.11c.06,1.45-.12,2.91-.5,4.27,1.16.2,2.33-.23,3.05-1.42l1.36,1.48Z"/>
        <path class="cls-2" d="m150.4,378.23c-1.11,2.47-3.81,6.62-6.6,6.65h-.03c-1.37,0-2.15-.96-2.33-1.95-.64,1.02-1.68,1.95-3.28,1.95-2.03,0-3.31-1.66-3.31-4.24,0-3.86,2.7-7.85,5.96-7.85,1.19,0,2.32.73,2.76,1.51.93-2.64,1.8-5.29,2.67-7.96h3.02c-4.65,12.73-5.81,15.75-4.56,15.75,1.13,0,2.97-2.21,4.42-5.26l1.28,1.4Zm-7.58-1.83c-.38-.55-.99-.96-1.74-.96-1.92,0-3.2,2.7-3.2,4.94,0,.93.41,1.71,1.34,1.71,1.28,0,2.47-1.86,3.6-5.69Z"/>
        <path class="cls-2" d="m161.36,378.23c-1.68,3.34-3.49,6.65-8.57,6.65-2.88,0-5.11-1.63-5.11-4.65,0-3.81,2.56-7.44,6.34-7.44,2.29,0,3.51,1.68,3.51,3.43,0,3.46-3.89,5-6.83,4.33.2,1.16,1.04,1.86,2.73,1.86,2.82,0,4.53-1.48,6.59-5.61l1.34,1.42Zm-10.61.49c1.86.2,4.01-.78,4.04-2.38.03-.67-.35-1.13-.99-1.13-1.45,0-2.67,1.57-3.05,3.52Z"/>
        <path class="cls-2" d="m170.97,380.91c-.93,1.6-3.22,3.98-5.61,3.98-1.77,0-2.7-1.28-2.7-2.76,0-1.8.9-3.66,2-6.07-.58-.03-1.31-.12-1.95-.29-1.19,2.85-2.64,5.03-4.16,6.83-1.42,1.68-2.5-.06-1.25-1.51,2.06-2.41,3.22-5.9,4.01-9.01h2.64c-.12.44-.23.84-.38,1.25,1.42.29,3.86.41,4.97.38-1.13,2.41-2.88,6.31-2.88,7.64,0,.47.23.76.61.76.7,0,2.06-1.37,3.02-2.82l1.66,1.63Z"/>
      </g>
      <g>
        <ellipse class="cls-2" cx="106.15" cy="144.84" rx="9.61" ry="6.94" transform="translate(-44.4 242.74) rotate(-86.8)"/>
        <ellipse class="cls-2" cx="63.95" cy="140.7" rx="9.61" ry="6.94" transform="translate(-80.1 196.7) rotate(-86.8)"/>
        <ellipse class="cls-2" cx="81.92" cy="157.39" rx="5.7" ry="8.01" transform="translate(-79.8 230.39) rotate(-86.8)"/>
        <circle class="cls-2" cx="61.9" cy="166.95" r="3.03"/>
        <circle class="cls-2" cx="103.66" cy="165.34" r="3.03"/>
        <circle class="cls-2" cx="54.19" cy="171.83" r="3.03"/>
        <circle class="cls-2" cx="113.2" cy="170.42" r="3.03"/>
        <circle class="cls-2" cx="62.69" cy="176.71" r="3.03"/>
        <circle class="cls-2" cx="102.13" cy="175" r="3.03"/>
        <path class="cls-2" d="m80.34,232.26c-1.81,0-3.28-1.47-3.28-3.28,0-13.29-8.02-19.95-17.31-27.66-10.53-8.74-22.47-18.65-22.97-39.83-.31-13.21,7.05-30.98,13.5-44.99,9.46-20.56,14.08-41.87,18.17-60.67,2.28-10.51,4.44-20.44,7.19-29.15C81.88,6.98,96.12-2.11,106.28.41c3.49.88,14.57,5.54,10.23,28.51-1.79,9.5-11.82,32.19-19.21,48.44-10.51,23.12-9.79,32.68-7.95,34.54.72.72,2.56.53,4.93-.52,5.02-2.23,14.3-25.2,21.76-43.66,9.23-22.86,18.78-46.49,27.95-55.66,8.73-8.74,21.24-9.82,29.72-2.55,8.17,6.99,12.41,22.42-2.53,42.91-4.55,6.24-8.96,12.1-13.1,17.6-17.41,23.13-30,39.85-27.98,51.44.95,5.47,4.22,12.75,7.69,20.45,2.47,5.49,5.02,11.16,7.23,17.14,4.37,11.85,12.7,41.78-4.47,63.61-1.13,1.43-3.19,1.67-4.61.55-1.42-1.12-1.67-3.18-.55-4.61,15.11-19.21,7.46-46.46,3.46-57.28-2.12-5.76-4.63-11.33-7.05-16.71-3.8-8.45-7.08-15.74-8.17-22.03-2.5-14.39,10.8-32.05,29.21-56.5,4.12-5.47,8.51-11.3,13.04-17.52,12.3-16.87,9.6-28.89,3.56-34.06-4.99-4.27-13.74-4.86-20.82,2.21-8.23,8.23-17.94,32.27-26.51,53.48-10.99,27.2-18.08,44.04-25.17,47.19-6.56,2.92-10.28,1.13-12.26-.86-7.03-7.09-.32-26.58,6.55-41.69,4.26-9.37,16.96-37.31,18.82-47.14,2.18-11.52.11-19.54-5.38-20.93-6.13-1.55-17.5,5.19-22.78,21.88-2.67,8.42-4.79,18.2-7.04,28.56-4.15,19.13-8.86,40.81-18.62,62.02-6.15,13.37-13.17,30.23-12.9,42.1.43,18.19,10.23,26.33,20.6,34.94,9.68,8.03,19.68,16.34,19.68,32.71,0,1.81-1.47,3.28-3.28,3.28Z"/>
      </g>
    </g>
  </g>
</svg>