<?xml version="1.0" encoding="UTF-8"?>
<svg id="_レイヤー_2" data-name="レイヤー 2" xmlns="http://www.w3.org/2000/svg" viewBox="0 0 37.4 49.76">
  <defs>
    <style>
      .cls-1 {
        fill: #fff;
      }

      .cls-1, .cls-2 {
        stroke-width: 0px;
      }

      .cls-2 {
        fill: #c3b9b3;
      }
    </style>
  </defs>
  <g id="TOP">
    <g>
      <path class="cls-2" d="m36.39,14.67L3.24,3.65l-.31-2.38C2.82.47,2.08-.09,1.28.01S-.09.86.01,1.66l6.15,46.83c.11.8.84,1.37,1.65,1.26s1.37-.84,1.26-1.65l-1.52-11.59,29.18-19.22c.47-.31.72-.86.65-1.42s-.46-1.02-.99-1.2Z"/>
      <path class="cls-1" d="m17.49,25.67h-8.14v-1.9l3.74-4.75c.47-.66.82-1.23,1.05-1.73s.34-.97.34-1.43c0-.61-.11-1.09-.32-1.44-.21-.35-.52-.52-.92-.52-.44,0-.78.2-1.04.61-.26.4-.38.97-.38,1.71h-2.69c0-.85.18-1.62.53-2.32s.84-1.25,1.48-1.64,1.35-.58,2.16-.58c1.23,0,2.19.34,2.87,1.02.68.68,1.02,1.65,1.02,2.9,0,.78-.19,1.57-.56,2.37-.38.8-1.06,1.78-2.04,2.95l-1.77,2.53h4.69v2.23Z"/>
    </g>
  </g>
</svg>