<?xml version="1.0" encoding="UTF-8"?>
<svg id="_レイヤー_2" data-name="レイヤー 2" xmlns="http://www.w3.org/2000/svg" viewBox="0 0 37.4 49.76">
  <defs>
    <style>
      .cls-1 {
        fill: #fff;
      }

      .cls-1, .cls-2 {
        stroke-width: 0px;
      }

      .cls-2 {
        fill: #e89056;
      }
    </style>
  </defs>
  <g id="TOP">
    <g>
      <path class="cls-2" d="m36.39,14.67L3.24,3.65l-.31-2.38C2.82.47,2.08-.09,1.28.01S-.09.86.01,1.66l6.15,46.83c.11.8.84,1.37,1.65,1.26s1.37-.84,1.26-1.65l-1.52-11.59,29.18-19.22c.47-.31.72-.86.65-1.42s-.46-1.02-.99-1.2Z"/>
      <path class="cls-1" d="m11.75,17.54h1.3c.49,0,.85-.17,1.09-.52.23-.34.35-.8.35-1.38s-.12-.98-.36-1.28-.55-.46-.95-.46c-.37,0-.68.15-.92.44-.24.29-.36.66-.36,1.1h-2.68c0-.72.17-1.37.5-1.94.33-.57.8-1.02,1.39-1.34.6-.32,1.26-.48,1.99-.48,1.27,0,2.27.35,2.99,1.05s1.08,1.66,1.08,2.88c0,.63-.16,1.21-.49,1.74-.33.53-.75.94-1.28,1.23.65.28,1.14.7,1.46,1.25.32.56.48,1.21.48,1.97,0,1.23-.39,2.21-1.17,2.95-.78.74-1.81,1.11-3.08,1.11-1.18,0-2.14-.36-2.88-1.1-.74-.73-1.1-1.69-1.1-2.88h2.68c0,.49.13.91.39,1.24.26.33.59.5.99.5.46,0,.83-.17,1.1-.51s.4-.8.4-1.37c0-1.36-.53-2.04-1.58-2.05h-1.32v-2.16Z"/>
    </g>
  </g>
</svg>