<?xml version="1.0" encoding="UTF-8"?>
<svg id="_レイヤー_2" data-name="レイヤー 2" xmlns="http://www.w3.org/2000/svg" viewBox="0 0 97.12 156.25">
  <defs>
    <style>
      .cls-1 {
        fill: #fff;
        stroke-width: 0px;
      }
    </style>
  </defs>
  <g id="TOP">
    <g>
      <ellipse class="cls-1" cx="46.67" cy="97.44" rx="6.47" ry="4.67" transform="translate(-53.23 138.6) rotate(-86.8)"/>
      <ellipse class="cls-1" cx="18.29" cy="94.66" rx="6.47" ry="4.67" transform="translate(-77.24 107.63) rotate(-86.8)"/>
      <ellipse class="cls-1" cx="30.37" cy="105.89" rx="3.83" ry="5.39" transform="translate(-77.05 130.3) rotate(-86.8)"/>
      <circle class="cls-1" cx="16.9" cy="112.32" r="2.04"/>
      <circle class="cls-1" cx="45" cy="111.23" r="2.04"/>
      <circle class="cls-1" cx="11.71" cy="115.6" r="2.04"/>
      <circle class="cls-1" cx="51.42" cy="114.65" r="2.04"/>
      <circle class="cls-1" cx="17.43" cy="118.88" r="2.04"/>
      <circle class="cls-1" cx="43.97" cy="117.73" r="2.04"/>
      <path class="cls-1" d="m29.31,156.25c-1.22,0-2.21-.99-2.21-2.21,0-8.94-5.4-13.42-11.64-18.61C8.37,129.56.34,122.89,0,108.64c-.21-8.88,4.74-20.84,9.08-30.27,6.37-13.83,9.47-28.17,12.22-40.82,1.53-7.07,2.98-13.75,4.84-19.61C30.35,4.69,39.93-1.42,46.76.28c2.35.59,9.8,3.73,6.88,19.18-1.21,6.39-7.95,21.66-12.92,32.59-7.07,15.55-6.59,21.99-5.35,23.24.49.49,1.72.36,3.32-.35,3.38-1.5,9.62-16.95,14.64-29.37,6.21-15.38,12.63-31.28,18.81-37.45,5.88-5.88,14.29-6.6,20-1.72,5.5,4.7,8.35,15.08-1.7,28.87-3.06,4.2-6.03,8.14-8.81,11.84-11.72,15.56-20.18,26.81-18.82,34.6.64,3.68,2.84,8.58,5.17,13.76,1.66,3.69,3.38,7.51,4.86,11.53,2.94,7.98,8.54,28.11-3,42.79-.76.96-2.15,1.12-3.1.37-.96-.75-1.12-2.14-.37-3.1,10.17-12.93,5.02-31.26,2.33-38.53-1.43-3.88-3.11-7.62-4.74-11.24-2.56-5.68-4.77-10.59-5.5-14.82-1.69-9.68,7.26-21.56,19.65-38.01,2.77-3.68,5.72-7.6,8.77-11.79,8.27-11.35,6.46-19.44,2.4-22.91-3.36-2.87-9.25-3.27-14.01,1.48-5.54,5.54-12.07,21.71-17.83,35.98-7.39,18.3-12.17,29.63-16.94,31.75-4.41,1.96-6.91.76-8.25-.58-4.73-4.77-.21-17.88,4.4-28.05,2.87-6.31,11.41-25.1,12.66-31.71,1.47-7.75.08-13.15-3.62-14.08-4.12-1.04-11.77,3.49-15.33,14.72-1.79,5.66-3.22,12.25-4.74,19.21-2.79,12.87-5.96,27.45-12.53,41.72-4.14,8.99-8.86,20.34-8.68,28.32.29,12.24,6.88,17.71,13.86,23.51,6.51,5.4,13.24,10.99,13.24,22,0,1.22-.99,2.21-2.21,2.21Z"/>
    </g>
  </g>
</svg>