<?xml version="1.0" encoding="UTF-8"?>
<svg id="_レイヤー_2" data-name="レイヤー 2" xmlns="http://www.w3.org/2000/svg" viewBox="0 0 103.31 166.56">
  <defs>
    <style>
      .cls-1 {
        fill: #101f39;
        stroke-width: 0px;
      }
    </style>
  </defs>
  <g id="TOP">
    <g>
      <path class="cls-1" d="m31.88,166.56c-1.04,0-1.97-.74-2.17-1.8-.71-3.79-2-7.32-3.86-10.49-2.59-4.43-5.31-6.54-8.46-8.98-2.3-1.78-4.9-3.8-7.56-6.92C3.9,131.43.42,123.23.04,115.26c-.39-8.11,2.25-17.38,7.87-27.55l.22-.39c.63-1.14,1.82-3.26,3.11-6.21,2.1-4.79,3.14-8.68,3.82-11.26.72-2.69,1.34-5.08,1.91-7.27,1.82-6.94,3.13-11.96,5.18-18.15.92-2.78,1.69-4.89,2.48-6.57-3.53.15-6.77-.83-9.26-2.81-5.79-4.61-5.16-12.59-4.62-15.8C12.57,8.33,23.24-.45,33.87.02c8.67.4,17.09,6.49,19.59,14.18.83,2.57.81,4.72.8,5.54-.12,9.72-3.88,18.82-8.22,29.36-1.68,4.07-3.41,8.28-5.08,12.86-1.38,3.78-5.57,15.3-3.08,17.6.69.63,2.05.98,3.17.82,2.56-.37,4.34-3.62,5.02-4.84,6.12-11.1,11.8-28.77,11.86-28.95.18-.56,4.53-14.03,13.35-29.42,3.24-5.66,6.96-11.34,13.66-13.28,1.74-.51,7.81-1.89,12.68,1.55,3.08,2.18,6.54,6.93,5.53,17.19-.28,2.86-1.52,7.93-9.01,18.99-1.69,2.49-2.45,3.46-3.98,5.39-1.15,1.46-2.75,3.48-5.55,7.19-.45.59-10.96,14.58-14.91,24.83-.45,1.15-.99,2.75-1.22,4.84-.41,3.76.48,6.77.82,7.9,1.62,5.45,3.97,11.3,6.05,16.45,1.01,2.5,1.96,4.87,2.65,6.78,1.85,5.07,4.93,13.55,4.34,23.64-.45,7.69-2.9,15.15-7.3,22.18-.65,1.03-2.01,1.34-3.04.7-1.03-.65-1.35-2.01-.7-3.04,4-6.39,6.23-13.15,6.64-20.09.53-9.18-2.25-16.82-4.09-21.88-.67-1.85-1.61-4.18-2.6-6.65-2.01-4.99-4.51-11.2-6.19-16.84-.41-1.36-1.49-4.99-.98-9.64.29-2.63.99-4.66,1.49-5.95,4.18-10.83,15.05-25.29,15.51-25.9,2.83-3.75,4.44-5.78,5.61-7.27,1.46-1.85,2.19-2.77,3.79-5.13,5.13-7.57,7.91-13.27,8.27-16.95.8-8.16-1.56-11.66-3.69-13.16-3.34-2.36-8-1.18-8.9-.92-5.12,1.48-8.15,6.16-11.06,11.23-8.59,14.99-12.8,28.03-12.97,28.57-.24.74-5.88,18.26-12.2,29.73-.96,1.75-3.52,6.39-8.24,7.08-2.46.36-5.13-.41-6.8-1.95-3.43-3.17-2.92-9.02,1.93-22.35,1.7-4.66,3.45-8.91,5.14-13.03,4.17-10.12,7.77-18.86,7.89-27.74,0-.67.03-2.24-.58-4.11-1.96-6.03-8.67-10.82-15.59-11.14-8.46-.39-17.12,6.88-18.58,15.54-.41,2.45-.94,8.48,3.02,11.62,1.9,1.51,4.55,2.14,7.46,1.76,1.17-.15,2.32-.47,3.35-.91.46-.33.94-.63,1.41-.92.64-.4,1.21-.76,1.71-1.19.12-.13.23-.27.34-.41,1.29-1.74,1.38-4.21,1.42-5.27.03-.73.06-1.55.83-2.22.47-.4,1.09-.59,1.7-.52.73.08,1.41.57,1.74,1.22.57,1.1.72,4.78-1.01,7.9-.58,1.05-1.26,1.84-1.96,2.48-1.06,1.11-2.42,2.05-3.96,2.78-1.76,1.4-2.79,3.47-4.8,9.53-2.01,6.05-3.3,11.01-5.1,17.88-.57,2.19-1.2,4.59-1.92,7.29-.72,2.71-1.81,6.79-4.04,11.9-1.38,3.14-2.63,5.38-3.3,6.59l-.21.37c-5.22,9.45-7.68,17.94-7.33,25.22.34,7,3.44,14.26,8.74,20.45,2.37,2.77,4.68,4.56,6.92,6.3,3.21,2.49,6.54,5.07,9.56,10.24,2.11,3.61,3.59,7.62,4.39,11.92.22,1.2-.57,2.35-1.77,2.57-.14.03-.27.04-.41.04Z"/>
      <ellipse class="cls-1" cx="20.51" cy="100.88" rx="5.11" ry="6.97"/>
      <ellipse class="cls-1" cx="50.52" cy="103.46" rx="5.11" ry="6.97"/>
      <ellipse class="cls-1" cx="33.15" cy="112.65" rx="5.62" ry="4.02"/>
      <circle class="cls-1" cx="18.71" cy="119.45" r="2.25"/>
      <circle class="cls-1" cx="48.81" cy="118.58" r="2.25"/>
      <circle class="cls-1" cx="47.66" cy="125.32" r="2.25"/>
      <circle class="cls-1" cx="55.64" cy="122.04" r="2.25"/>
      <circle class="cls-1" cx="13.15" cy="123.08" r="2.25"/>
      <circle class="cls-1" cx="19.47" cy="126.53" r="2.25"/>
    </g>
  </g>
</svg>