<?xml version="1.0" encoding="UTF-8"?>
<svg id="_レイヤー_2" data-name="レイヤー 2" xmlns="http://www.w3.org/2000/svg" viewBox="0 0 270.16 91.08">
  <defs>
    <style>
      .cls-1 {
        fill: #1b2a44;
        stroke-width: 0px;
      }
    </style>
  </defs>
  <g id="TOP">
    <g>
      <path class="cls-1" d="m0,52.83C0,30.42,14.78,0,36.62,0c13.16,0,20.12,12.21,15.74,26.8h-11.16c3.43-9.63,0-16.4-6.2-16.4-12.59,0-23.84,23.65-23.84,41.77,0,8.39,3.34,13.54,10.01,13.54,6.29,0,11.25-5.53,15.16-13.35l9.35,4c-4.29,10.87-13.16,19.93-26.13,19.93-10.2,0-19.55-7.53-19.55-23.46Z"/>
      <path class="cls-1" d="m99.66,43.2c-2.1,4-9.16,8.58-16.4,7.44-2.77,9.35-10.01,17.07-20.03,17.07-8.11,0-13.06-5.91-13.06-13.92,0-13.26,8.87-25.75,21.55-25.75,8.39,0,12.78,6.96,12.78,14.02v.76c4.1,1.05,8.2-.38,10.68-4.48l4.48,4.86Zm-25.08-.38c0-3.72-1.53-6.39-4.48-6.39-5.15,0-10.11,9.06-10.11,16.02,0,4.29,1.81,6.48,4.58,6.48,4.96,0,10.01-8.87,10.01-16.12Z"/>
      <path class="cls-1" d="m108.24,59.32c0-7.34,7.06-15.45,7.06-19.93,0-1.53-.57-2.58-2.29-2.58-7.63,0-15.16,19.46-18.02,29.95h-9.92c4.29-12.59,8.49-25.18,12.87-37.77h9.63l-2.67,7.82c3.43-5.82,8.58-8.77,13.26-8.77s7.73,3.15,7.73,7.82c.19,7.06-7.53,16.59-7.53,20.7,0,1.24.76,2,2,2,3.72,0,9.63-7.53,14.4-17.26l4.2,4.58c-3.62,8.11-12.49,21.84-22.03,21.84-5.72,0-8.68-3.53-8.68-8.39Z"/>
      <path class="cls-1" d="m173.75,45.87c-5.53,10.97-11.44,21.84-28.13,21.84-8.77,0-15.54-5.53-15.54-15.35,0-12.88,9.25-24.32,20.31-24.32,10.01,0,13.73,9.44,10.68,18.31h-10.01c1.91-5.53,1.14-9.82-2-9.82-4.39,0-8.87,7.63-8.87,14.69,0,5.34,2.77,8.39,7.53,8.39,9.25,0,14.97-4.86,21.74-18.41l4.29,4.67Z"/>
      <path class="cls-1" d="m209.8,45.87c-5.53,10.97-11.44,21.84-28.13,21.84-9.44,0-16.78-5.34-16.78-15.26,0-12.49,8.39-24.41,20.79-24.41,7.53,0,11.54,5.53,11.54,11.25,0,11.35-12.78,16.4-22.41,14.21.67,3.81,3.43,6.1,8.96,6.1,9.25,0,14.88-4.86,21.65-18.41l4.39,4.67Zm-34.81,1.62c6.1.67,13.16-2.57,13.26-7.82.1-2.19-1.14-3.72-3.24-3.72-4.77,0-8.77,5.15-10.01,11.54Z"/>
      <path class="cls-1" d="m188.06,91.08c7.15-20.6,14.21-41.58,21.27-62.08h9.73l-3.24,8.11c3.05-5.15,7.92-8.96,13.16-8.96s8.58,4.2,8.58,11.63c0,6.58-4.29,16.4-9.82,20.12,6.39-.67,13.26-7.06,18.12-18.69l4.2,5.25c-8.39,19.26-18.98,21.36-30.14,21.36-4.86,0-9.63-.95-13.16-3.43-2.48,7.06-5.25,16.31-8.39,26.7h-10.3Zm39.29-49.5c0-3.15-1.14-5.15-3.53-5.15-3.81-.09-9.35,5.72-14.97,21.08,1.33,1.43,3.62,2.38,6.29,2.38,6.29,0,12.21-10.87,12.21-18.31Z"/>
      <path class="cls-1" d="m270.16,54.65c-3.05,5.25-10.59,13.07-18.41,13.07-13.26,0-10.97-14.02-5.15-31.19h-4.1l2.57-7.53h4.2l4.96-13.26h9.92c-2,4.96-3.72,9.35-5.25,13.26h8.01l-2.67,7.53h-8.11c-6.01,16.78-6.1,22.03-1.34,22.03,2.29,0,6.77-4.48,9.92-9.25l5.44,5.34Z"/>
    </g>
  </g>
</svg>